<?xml version="1.0" encoding="UTF-8" standalone="no"?>

<svg
   xmlns:svg="http://www.w3.org/2000/svg"
   xmlns="http://www.w3.org/2000/svg"
   version="1.1"
   width="500"
   height="500">
  <g
     transform="translate(0,-552.36218)">
    <g
       transform="translate(76.587531,-1.12043)">
      <path
         d="m 280.60839,586.99595 0.16049,13.64057 -25.03447,-0.16049 -0.16045,-13.31961 z"
         id="236" />
      <path
         d="m 280.76888,600.47603 0.16046,12.35675 -24.87396,-0.16048 -0.32097,-12.19627 z"
         id="235" />
      <path
         d="m 256.21586,612.51182 -0.16048,12.99867 25.03446,0.16047 -0.1605,-12.51723 z"
         id="234" />
      <path
         d="m 256.05538,612.35135 -25.3554,0.16047 0.32095,13.48009 25.03445,-0.32095 z"
         id="171" />
      <path
         d="m 256.05538,612.35135 0,-11.87532 -25.3554,0.16049 0,11.39386 z"
         id="170" />
      <path
         d="m 255.57396,600.47603 0,-13.48008 -25.19494,0.48143 0.16049,12.51724 0,0.32094 z"
         id="169" />
      <path
         d="m 280.46596,586.83613 0,-12.1473 -25.41339,-0.31966 0.5594,12.54686 z"
         id="237" />
      <path
         d="m 254.97264,574.20934 -0.15983,-12.6268 25.57323,0.0799 0,13.02637 z"
         id="238" />
      <path
         d="m 255.05257,561.50262 0.39956,25.41341 -12.46693,0.23975 -0.39959,-25.4134 z"
         id="168" />
      <path
         d="m 242.58561,561.74238 -12.30713,0 0.15985,25.57323 12.62679,-0.15983 z"
         id="167" />
      <path
         d="m 231.23749,625.91522 0.31966,13.50587 25.09373,-0.23975 -0.31966,-13.50587 z"
         id="172" />
      <path
         d="m 281.18521,625.59555 0.47949,13.58579 -25.01382,-0.23973 -0.23975,-13.34606 z"
         id="233" />
      <path
         d="m 231.63707,639.26126 0.0799,12.94644 25.17364,0.0799 -0.15983,-13.02637 z"
         id="173" />
      <path
         d="m 256.73079,639.18134 0.0799,12.86654 24.69417,0 0.15982,-12.70671 z"
         id="232" />
      <path
         d="m 231.7969,652.2077 0.23975,13.26612 24.9339,-0.15983 -0.0799,-13.02636 0,0 z"
         id="174" />
      <path
         d="m 232.11656,665.39392 0,13.10628 25.01383,-0.39959 0,-12.86654 z"
         id="175" />
      <path
         d="m 232.2764,678.5002 0.23974,13.10628 25.09374,-0.31967 -0.31967,-13.26612 z"
         id="176" />
      <path
         d="m 257.45005,691.36673 0.23974,12.94645 -24.69415,0.0799 -0.39957,-12.78662 z"
         id="177" />
      <path
         d="m 257.60988,704.3931 0.39958,12.78662 -25.01382,0.15983 0.0799,-12.7067 z"
         id="178" />
      <path
         d="m 257.92954,717.17972 0.39959,13.02637 -24.9339,0.15982 -0.31968,-13.10628 z"
         id="179" />
      <path
         d="m 258.24922,730.28601 0.39958,12.7067 -25.25357,-0.15984 0.15983,-12.46696 z"
         id="180" />
      <path
         d="m 233.63496,742.83287 0.23976,13.10628 24.93391,0.0799 -0.15983,-12.86654 z"
         id="181" />
      <path
         d="m 233.95464,756.01907 0.31966,13.74562 25.01381,-0.4795 -0.5594,-13.26612 z"
         id="182" />
      <path
         d="m 234.43414,769.84461 0.23974,12.86653 24.69415,-0.39957 -0.0799,-13.02638 z"
         id="183" />
      <path
         d="m 234.83372,782.63123 0,12.7067 25.01382,-0.55941 -0.39957,-12.38705 z"
         id="184" />
      <path
         d="m 256.89062,652.04788 0.0799,13.10628 25.01383,-0.23975 -0.3996,-12.94644 z"
         id="231" />
      <path
         d="m 257.05048,665.23407 0.15983,12.94646 24.9339,0 0,-13.26612 z"
         id="230" />
      <path
         d="m 257.29021,678.18053 0.15984,13.10628 25.09373,-0.39958 -0.31966,-12.86654 z"
         id="229" />
      <path
         d="m 257.37013,691.28681 0.31966,12.86653 25.09374,-0.23974 -0.23975,-12.94645 z"
         id="228" />
      <path
         d="m 257.60988,704.31318 0.39958,12.70671 24.9339,-0.39959 -0.23974,-12.62678 z"
         id="227" />
      <path
         d="m 257.92954,717.0998 0.47951,13.10629 24.77407,-0.55941 -0.23976,-12.94647 z"
         id="226" />
      <path
         d="m 258.32913,730.20609 0.39958,12.70669 24.69417,0.23975 -0.0799,-13.42595 z"
         id="225" />
      <path
         d="m 258.72871,743.07263 0.15982,12.94644 25.01384,-0.79916 -0.39958,-11.98746 -24.3745,-0.0799 z"
         id="224" />
      <path
         d="m 259.04838,756.01907 0.15982,13.1862 24.854,-0.15983 -0.15983,-13.74561 z"
         id="223" />
      <path
         d="m 259.28811,769.20527 0.15986,13.1063 24.93391,-0.63934 -0.23978,-12.54687 z"
         id="222" />
      <path
         d="m 259.68772,782.31157 0.15982,12.54685 24.69416,-0.39957 0,-12.62679 z"
         id="221" />
      <path
         d="m 259.84754,794.77852 0.39958,13.26611 25.01383,-0.31967 -0.55941,-13.42595 z"
         id="220" />
      <path
         d="m 259.68772,794.85842 -24.77409,0.47951 0.31967,13.1862 25.01382,-0.39958 z"
         id="185" />
      <path
         d="m 260.24712,807.96471 0.39958,13.26613 24.85399,-0.39959 -0.39958,-13.18621 z"
         id="219" />
      <path
         d="m 260.40695,808.04463 -25.09373,0.39958 0.31967,13.26612 24.85397,-0.63934 z"
         id="186" />
      <path
         d="m 260.56678,821.23084 0.15984,12.78662 25.09375,-0.23975 -0.47952,-12.86654 z"
         id="218" />
      <path
         d="m 260.80654,821.31075 -25.17365,0.39958 0,12.86654 25.09373,-0.55941 z"
         id="187" />
      <path
         d="m 260.88645,834.09737 0.0799,12.94646 24.85399,-0.23975 -0.23975,-13.10629 z"
         id="217" />
      <path
         d="m 261.1262,834.01746 -25.33349,0.55941 0.0799,13.42596 25.09375,-0.71927 z"
         id="188" />
      <path
         d="m 261.1262,847.36348 0.23975,13.02638 -25.25358,0.71923 -0.0799,-13.10626 z"
         id="189" />
      <path
         d="m 260.96638,847.20366 24.85399,-0.31966 0.63932,12.86652 -24.93391,0.55944 z"
         id="216" />
      <path
         d="m 261.52578,860.46978 0.23974,12.62679 -25.49331,0.39957 0.0799,-12.38705 z"
         id="190" />
      <path
         d="m 261.44587,860.30996 25.09373,-0.55944 0.31969,13.10629 -24.93393,0.0799 z"
         id="215" />
      <path
         d="m 261.84545,873.01665 0.39959,13.6657 -25.57324,0.71923 -0.15984,-13.90544 z"
         id="191" />
      <path
         d="m 261.84545,873.09657 25.01384,-0.23976 0.31965,13.34602 -24.69415,0.47952 z"
         id="214" />
      <path
         d="m 262.08521,886.52251 0.39958,13.50587 -25.49332,0.39958 -0.0799,-13.02638 z"
         id="192" />
      <path
         d="m 262.08521,886.60243 25.09373,-0.3996 0.15983,12.78663 -24.61425,0.87908 z"
         id="213" />
      <path
         d="m 237.07137,900.42796 0.39958,13.42596 25.17366,-0.3996 0,-13.34602 z"
         id="193" />
      <path
         d="m 262.64461,900.02838 24.61425,-1.19874 0.47949,13.82553 -24.854,0.79915 z"
         id="212" />
      <path
         d="m 262.80444,913.45432 0.39959,12.78663 -25.33349,0.87907 -0.39959,-13.10628 z"
         id="194" />
      <path
         d="m 263.1241,913.45432 24.69417,-0.63933 0.31967,12.22721 -24.85399,0.959 z"
         id="211" />
      <path
         d="m 263.1241,926.08111 0.47951,13.1063 -25.3335,1.03891 -0.39957,-13.1063 z"
         id="195" />
      <path
         d="m 263.20403,926.24095 24.93391,-1.19875 0.23975,13.58578 -24.77408,0.4795 z"
         id="210" />
      <path
         d="m 263.36387,939.18741 0.23974,13.50585 -25.4134,0.71925 0.15983,-13.10628 z"
         id="196" />
      <path
         d="m 263.52369,939.34723 24.77409,-0.71925 0.23973,13.74563 -24.69415,0.39957 z"
         id="209" />
      <path
         d="m 263.60361,952.69326 0.31966,13.18619 -25.25357,0.55943 -0.39959,-13.02637 z"
         id="197" />
      <path
         d="m 263.60361,952.85311 24.9339,-0.4795 0.39958,13.10627 -25.01382,0.39957 z"
         id="208" />
      <path
         d="m 263.84336,965.79954 0.39957,12.78663 25.3335,-0.23976 -0.47951,-12.86653 z"
         id="207" />
      <path
         d="m 263.92327,965.87945 -25.25357,0.47951 0.20038,8.26558 0.11929,4.92061 25.17364,-0.87905 z"
         id="198" />
      <path
         d="m 264.16301,978.58617 0.31969,13.42594 24.854,-0.31966 0.0799,-13.2661 z"
         id="206" />
      <path
         d="m 264.32285,978.90583 -25.25357,0.55941 -0.15983,14.22513 25.65316,-1.59832 z"
         id="199" />
      <path
         d="m 264.32285,992.09205 0.39959,14.54475 25.17366,-1.4385 -0.39958,-13.50585 z"
         id="205" />
      <path
         d="m 264.4827,992.25187 -25.41342,1.4385 0.39959,13.90543 25.25357,-0.959 z"
         id="200" />
      <path
         d="m 252.41532,1007.1163 0.87908,26.772 12.46695,-0.4794 -0.87907,-26.852 z"
         id="202" />
      <path
         d="m 252.3354,1007.2761 -12.78662,0.3197 1.19876,27.0916 12.54686,-0.7192 z"
         id="201" />
      <path
         d="m 264.88228,1006.5569 0.5594,12.9465 25.09373,-0.7193 -0.5594,-13.5059 z"
         id="204" />
      <path
         d="m 290.37558,1018.7841 0.47952,13.346 -25.01382,1.1189 -0.31969,-13.7456 z"
         id="203" />
      <path
         d="m 203.02699,1009.9134 1.43851,26.7721 12.46695,-0.3997 -1.27866,-27.1716 z"
         id="131" />
      <path
         d="m 215.57387,1009.1941 13.10628,-0.7991 1.11885,27.4912 -12.94647,0.3197 z"
         id="132" />
      <path
         d="m 203.02699,1009.9933 1.51843,26.852 -13.34605,0.5593 -0.79916,-26.692 z"
         id="130" />
      <path
         d="m 190.48013,1010.8724 -13.1862,0.3996 0.79916,26.6122 13.1862,-0.3997 z"
         id="129" />
      <path
         d="m 202.94709,1009.9933 -0.15983,-14.46487 -25.65315,1.11883 0.15982,14.46484 z"
         id="128" />
      <path
         d="m 202.94709,1009.9134 25.73306,-1.6782 -0.23974,-13.8256 -25.57324,1.27867 z"
         id="133" />
      <path
         d="m 202.78726,995.52843 -0.0799,-13.50586 -25.65316,0.87907 0.31967,13.5858 z"
         id="127" />
      <path
         d="m 202.70734,982.02257 -0.0799,-13.58576 -25.8929,0.31965 0.23974,13.98536 z"
         id="126" />
      <path
         d="m 202.46758,968.35687 -0.31966,-12.86654 -25.57324,0.63934 0,12.54688 z"
         id="125" />
      <path
         d="m 201.90817,955.81 0,-13.90545 -25.65316,0.3996 0.31967,13.82552 z"
         id="124" />
      <path
         d="m 201.5885,941.90455 0,-13.02636 -25.73306,0.71924 0.4795,12.62679 z"
         id="123" />
      <path
         d="m 176.01527,929.51752 -0.39959,-13.18619 25.813,-0.79918 0.15982,13.34604 z"
         id="122" />
      <path
         d="m 201.10901,915.69198 0,-13.26613 -25.65315,0.31969 0.31966,13.42595 z"
         id="121" />
      <path
         d="m 200.78935,889.15975 0.31966,13.34604 -25.65315,0.31966 -0.23975,-12.78663 z"
         id="120" />
      <path
         d="m 200.78935,889.23967 0,-13.1063 -25.813,0.55943 0.31967,13.2661 z"
         id="119" />
      <path
         d="m 200.54959,876.21328 -0.31967,-13.18618 -25.4134,0.31966 0.23975,13.34604 z"
         id="118" />
      <path
         d="m 200.62951,876.29321 25.01382,-0.95899 -0.23974,-13.10629 -25.01382,0.55943 z"
         id="143" />
      <path
         d="m 200.62951,876.37314 0.39958,12.86653 25.25358,-0.87909 -0.4795,-12.78661 z"
         id="142" />
      <path
         d="m 201.02909,889.15975 0,13.2661 25.4134,-0.23974 -0.23974,-13.58578 z"
         id="141" />
      <path
         d="m 201.18893,902.42585 0.0799,13.02639 25.41341,-0.39958 -0.23976,-12.86655 z"
         id="140" />
      <path
         d="m 201.34876,915.61206 0.15983,13.1063 25.17366,-0.31967 0.0799,-13.26611 z"
         id="139" />
      <path
         d="m 201.66842,928.95811 -0.0799,12.86653 25.41342,-0.63932 -0.15984,-12.86656 z"
         id="138" />
      <path
         d="m 201.74835,941.82464 0.31966,13.66569 25.17365,-0.79917 -0.31966,-13.50584 z"
         id="137" />
      <path
         d="m 202.22784,955.57025 0.31967,12.86656 25.01382,-0.55945 -0.15983,-13.02634 z"
         id="136" />
      <path
         d="m 202.86717,968.67655 -0.15983,13.42596 25.25358,-0.95901 -0.23976,-13.18621 z"
         id="135" />
      <path
         d="m 202.70734,982.26233 0.0799,13.66571 25.57323,-1.67826 -0.31967,-13.1862 z"
         id="134" />
      <path
         d="m 218.82888,562.12198 0.65459,25.79039 -12.30608,0.13089 -0.39274,-25.79037 z"
         id="166" />
      <path
         d="m 206.78465,562.25289 -12.82974,0.13093 0.65459,25.92128 12.69881,-0.13092 z"
         id="165" />
      <path
         d="m 193.95491,562.51473 -12.82972,-0.13091 0.65458,25.79036 12.69881,0.13092 z"
         id="96" />
      <path
         d="m 181.2561,562.64564 -13.09157,-0.26182 0.39275,25.79036 13.09158,0 z"
         id="95" />
      <path
         d="m 194.47858,588.17418 0.52367,14.1389 -25.9213,0.39275 -0.52367,-14.53165 z"
         id="97" />
      <path
         d="m 194.74041,588.3051 24.74306,-0.26184 0.39274,14.26982 -25.00489,0 z"
         id="164" />
      <path
         d="m 194.87132,602.05125 0.13093,13.4843 -25.9213,0 -0.26183,-12.82972 z"
         id="98" />
      <path
         d="m 194.87132,602.444 24.87397,0 0.52367,13.09155 -25.39764,-0.13092 z"
         id="163" />
      <path
         d="m 195.00225,615.53555 0.26182,12.82974 -25.92129,-0.13091 -0.13091,-12.56792 z"
         id="99" />
      <path
         d="m 195.13316,615.53555 25.1358,0.13091 0.26183,12.69883 -25.26672,-0.13091 z"
         id="162" />
      <path
         d="m 195.39498,628.4962 0.13093,12.96065 -25.9213,0 -0.39274,-13.09156 z"
         id="100" />
      <path
         d="m 195.39498,628.62711 25.26672,-0.13091 0.26184,12.96065 -25.39763,0 z"
         id="161" />
      <path
         d="m 195.26407,641.58777 0.52366,12.69881 -26.05221,0.13091 -0.13091,-12.82972 z"
         id="101" />
      <path
         d="m 195.39498,641.71869 25.52856,-0.26184 -0.26184,12.82973 -25.13579,-0.13091 z"
         id="160" />
      <path
         d="m 195.78773,654.02476 0.26184,13.35339 -25.79038,0 -0.52367,-12.96066 z"
         id="102" />
      <path
         d="m 195.91866,654.28658 24.61213,0.13091 0.52367,12.96066 -25.00489,-0.13092 z"
         id="159" />
      <path
         d="m 195.91866,667.37815 0.39273,13.09157 -25.92129,0 -0.13091,-13.09157 z"
         id="103" />
      <path
         d="m 196.04957,667.50906 25.00489,-0.13091 0.39274,13.09157 -24.87397,-0.13093 z"
         id="158" />
      <path
         d="m 196.31139,680.20787 0.26184,13.22249 -25.79038,0.26183 -0.39275,-13.3534 z"
         id="104" />
      <path
         d="m 196.31139,680.20787 25.0049,0 0.39274,13.09158 -25.1358,0 z"
         id="157" />
      <path
         d="m 196.44231,693.43036 0.26184,13.22248 -25.52855,0.26182 -0.26184,-13.22247 z"
         id="105" />
      <path
         d="m 196.57323,693.69219 25.26672,-0.52366 0,13.61522 -25.1358,-0.26182 z"
         id="156" />
      <path
         d="m 196.96598,706.52193 0.13091,12.96064 -25.65947,0.26183 -0.13091,-12.69882 z"
         id="106" />
      <path
         d="m 197.09689,706.78375 24.87397,-0.13091 0.26184,12.30608 -25.13581,0.39273 z"
         id="155" />
      <path
         d="m 197.09689,719.61348 0.26183,13.22249 -25.65946,0.13091 -0.26184,-13.09157 z"
         id="107" />
      <path
         d="m 197.2278,719.61348 25.0049,-0.52365 0.26182,13.35339 -25.00488,0.39275 z"
         id="154" />
      <path
         d="m 197.35872,732.83597 0.39276,12.96065 -25.52856,0.52365 -0.39275,-13.35339 z"
         id="108" />
      <path
         d="m 197.35872,732.96688 25.26673,-0.52366 0.26182,12.69881 -25.00488,0.65459 z"
         id="153" />
      <path
         d="m 197.75148,745.6657 0.26182,13.09156 -25.65945,0.13091 -0.13093,-12.69881 z"
         id="109" />
      <path
         d="m 198.14421,745.6657 24.74306,-0.52367 0.26183,13.48432 -25.1358,0 z"
         id="152" />
      <path
         d="m 198.0133,758.88817 0.26183,12.43699 -26.05221,0.26184 0.26184,-12.69883 z"
         id="110" />
      <path
         d="m 197.88239,759.01909 25.26671,-0.26183 0.26184,12.5679 -25.13581,-0.26183 z"
         id="151" />
      <path
         d="m 199.19155,823.95325 0.39274,12.96063 25.1358,-0.39272 -0.26182,-13.09157 z"
         id="146" />
      <path
         d="m 199.45337,823.95325 -25.92129,0.52366 0.52366,13.22248 25.52855,-0.52367 z"
         id="115" />
      <path
         d="m 199.32246,824.08417 -0.26184,-13.74615 25.39765,-0.13092 0.13091,13.3534 z"
         id="147" />
      <path
         d="m 174.05574,837.8303 0.13092,12.96066 25.9213,-0.52367 -0.52367,-13.09157 z"
         id="116" />
      <path
         d="m 199.58429,837.04481 25.1358,-0.65457 0.39275,13.61521 -24.87397,0 z"
         id="145" />
      <path
         d="m 199.32246,824.21508 -0.13091,-13.87706 -25.9213,0.26183 0.26183,13.61523 z"
         id="114" />
      <path
         d="m 198.27513,771.32516 0.26183,13.22248 -25.92129,0.65458 -0.26182,-13.48431 z"
         id="111" />
      <path
         d="m 198.27513,771.45608 25.26673,-0.13092 0.13091,12.82974 -25.13581,0.26183 z"
         id="150" />
      <path
         d="m 198.53696,784.54764 0,13.09156 -25.39763,0.13091 -0.52366,-12.56789 z"
         id="112" />
      <path
         d="m 198.40605,784.67855 25.26672,-0.39274 0.39274,12.82973 -25.65946,0.65457 z"
         id="149" />
      <path
         d="m 198.66789,797.6392 0.52366,12.96065 -25.79038,0.13093 0,-13.09158 z"
         id="113" />
      <path
         d="m 198.66789,797.77011 0.52366,12.82974 25.39763,-0.26183 -0.52367,-13.22248 z"
         id="148" />
      <path
         d="m 200.10796,850.13638 0.13091,12.82973 25.39763,-0.52367 -0.52366,-12.43699 z"
         id="144" />
      <path
         d="m 200.23887,850.13638 -25.92129,0.52366 0.26182,12.69882 25.65947,-0.39275 z"
         id="117" />
      <path
         d="m 205.47549,927.90027 12.56791,-0.39276 0.91641,65.98148 -11.52057,0.26183 z"
         id="path3383" />
      <path
         d="m 144.86156,562.77656 0.78549,25.92128 -13.61523,0.26184 -0.65458,-26.18312 z"
         id="93" />
      <path
         d="m 145.12338,562.51473 11.78241,0.39275 0.65458,25.65945 -11.7824,0 z"
         id="94" />
      <path
         d="m 132.16273,588.82877 0.39276,13.48431 25.26671,0.13092 -0.39274,-13.74616 z"
         id="92" />
      <path
         d="m 132.42457,602.18216 0.39275,13.09158 25.65946,0.26181 -0.65458,-13.09155 z"
         id="91" />
      <path
         d="m 132.6864,615.27374 0.52367,13.35337 25.1358,-0.13091 0,-12.96065 z"
         id="90" />
      <path
         d="m 133.21007,628.62711 0.13091,13.22249 25.52854,-0.26183 -0.52365,-13.09157 z"
         id="89" />
      <path
         d="m 133.34098,641.71869 0.39275,13.22248 25.39763,-0.26184 -0.26184,-13.09156 z"
         id="88" />
      <path
         d="m 133.99556,654.67933 0,13.48431 25.39763,-0.52367 -0.39276,-12.96064 z"
         id="87" />
      <path
         d="m 134.12648,668.29456 0.13091,12.69881 25.52854,-0.26182 -0.52365,-13.09158 z"
         id="86" />
      <path
         d="m 134.25739,681.2552 0.39274,13.22248 25.52855,-0.52366 -0.39275,-13.09156 z"
         id="85" />
      <path
         d="m 134.91197,694.73952 0.13092,12.43699 25.00488,-0.39276 0.13091,-12.69881 z"
         id="84" />
      <path
         d="m 135.30471,707.30742 -0.13091,13.4843 25.39763,-0.78548 -0.39275,-13.22249 z"
         id="83" />
      <path
         d="m 135.1738,720.66081 0.13091,13.09156 25.79038,-0.52366 -0.52366,-12.96065 z"
         id="82" />
      <path
         d="m 135.9593,747.10577 -0.52368,-13.22247 25.65947,-0.7855 0,13.09156 z"
         id="81" />
      <path
         d="m 135.9593,747.10577 0.13091,12.96065 25.26672,-0.65458 0,-13.09157 z"
         id="80" />
      <path
         d="m 136.22112,759.9355 -0.13091,13.22248 25.92129,-0.52366 -0.65457,-13.09156 z"
         id="79" />
      <path
         d="m 136.35203,773.02706 0,13.3534 25.52856,-0.26183 0.26182,-13.09157 z"
         id="78" />
      <path
         d="m 136.35203,786.51138 0.39275,12.96064 25.39763,-0.26182 -0.26182,-13.09157 z"
         id="77" />
      <path
         d="m 136.87571,799.2102 0,13.22247 25.79037,-0.52366 -0.65458,-12.69881 z"
         id="76" />
      <path
         d="m 137.26844,812.43267 0.26184,13.09157 25.26672,-0.26184 -0.13092,-13.35339 z"
         id="75" />
      <path
         d="m 137.26844,825.13149 0.13093,13.61523 25.39763,-0.26183 0,-13.22249 z"
         id="74" />
      <path
         d="m 137.39937,838.61581 0.52366,13.48429 25.39763,-0.52366 -0.65458,-13.22246 z"
         id="73" />
      <path
         d="m 137.92303,852.1001 0.26183,13.22249 25.26671,-0.13091 0.13092,-13.61524 z"
         id="72" />
      <path
         d="m 138.05394,865.06076 0.26184,13.35339 25.65945,-0.52366 -0.52366,-12.82973 z"
         id="71" />
      <path
         d="m 138.44669,878.28324 0.39274,13.35339 25.1358,-0.52365 0.13093,-13.22249 z"
         id="70" />
      <path
         d="m 138.70851,891.89846 0.13092,12.69882 25.39764,-0.65459 -0.39275,-12.82971 z"
         id="69" />
      <path
         d="m 138.83943,904.33544 0.52367,14.00799 25.00488,-0.52367 -0.13091,-13.74615 z"
         id="68" />
      <path
         d="m 139.10127,918.0816 0.26183,13.09155 25.52855,-0.26183 -0.52367,-13.09156 z"
         id="67" />
      <path
         d="m 139.49401,931.17315 0.13091,13.74615 25.26673,-0.91641 0,-13.09157 z"
         id="66" />
      <path
         d="m 139.88676,944.9193 0.13091,13.61521 25.26672,-0.78547 -0.52366,-13.61524 z"
         id="65" />
      <path
         d="m 139.88676,958.53451 0.13091,13.3534 25.52855,-0.65458 -0.26183,-13.61522 z"
         id="64" />
      <path
         d="m 140.01767,971.757 0.39275,12.96065 25.26672,-0.65458 0,-12.82974 z"
         id="63" />
      <path
         d="m 140.41042,984.58674 0.26184,14.53162 25.65945,-1.57097 -0.65457,-13.2225 z"
         id="62" />
      <path
         d="m 165.93898,997.54739 0.39273,14.66251 -25.39763,1.1783 -0.13091,-14.13892 z"
         id="61" />
      <path
         d="m 152.97832,1012.7336 1.30916,26.9686 13.09157,-0.6546 -1.04734,-26.7068 z"
         id="60" />
      <path
         d="m 153.10924,1012.9954 -12.43698,0.3928 0.65457,26.9686 13.09157,-0.3928 z"
         id="59" />
      <path
         d="m 140.67226,1013.5191 -13.09157,0.5237 0.65458,26.8377 12.96065,-0.5237 z"
         id="58" />
      <path
         d="m 140.93408,1013.65 -0.65457,-26.96862 -13.61523,0.65458 0.91641,26.83774 z"
         id="55" />
      <path
         d="m 126.53337,987.46687 -12.82974,0.26185 0.39275,27.36138 13.61523,-0.9164 z"
         id="54" />
      <path
         d="m 113.96546,987.72872 -12.56789,0.78547 -3.141976,27.09951 15.578956,-0.6545 z"
         id="53" />
      <path
         d="m 114.22729,1014.9592 0.91641,27.3613 -20.030086,0.7854 3.14198,-27.4922 z"
         id="56" />
      <path
         d="m 114.22729,1015.0901 13.61523,-0.9164 0.39275,26.8376 -12.96065,1.0473 z"
         id="57" />
      <path
         d="m 135.56654,741.73823 -13.48431,-0.39274 -2.09464,26.44494 16.10262,-0.13091 z"
         id="40" />
      <path
         d="m 135.56654,741.4764 -13.22247,-0.26184 1.70191,-25.52854 11.12782,-0.13092 z"
         id="39" />
      <path
         d="m 134.12648,677.32774 -7.20037,-0.13092 -1.17824,13.22248 8.77134,0.13092 z"
         id="37" />
      <path
         d="m 134.65013,690.68113 0.13093,13.3534 -10.34234,-0.39276 1.44007,-12.96064 z"
         id="38" />
      <path
         d="m 115.53645,830.62994 -1.57099,17.28087 23.69573,-0.52367 -0.39275,-16.7572 z"
         id="44" />
      <path
         d="m 115.40553,830.62994 1.04732,-12.96064 20.81559,-0.39275 0,13.48431 z"
         id="43" />
      <path
         d="m 136.22112,778.91828 -16.88812,0 -2.09465,25.65945 19.63736,0 z"
         id="41" />
      <path
         d="m 124.56963,859.30046 -0.13091,26.05223 14.00797,-0.13092 -0.52366,-26.57586 z"
         id="46" />
      <path
         d="m 124.70054,859.16955 -11.7824,0.26182 -1.96374,26.31406 13.61523,-0.26183 z"
         id="45" />
      <path
         d="m 124.43872,885.35269 -0.26183,25.92128 14.79347,0 -0.39276,-26.0522 z"
         id="48" />
      <path
         d="m 124.43872,885.35269 -13.48432,0.13091 -2.35648,26.57587 15.44806,-0.7855 z"
         id="47" />
      <path
         d="m 139.10127,922.53273 -16.88812,0.39274 0.39275,26.57588 17.14994,-0.26184 z"
         id="50" />
      <path
         d="m 122.21315,922.79456 -13.87705,0.26183 -2.35649,27.09953 16.7572,-0.52366 z"
         id="49" />
      <path
         d="m 122.47498,949.23951 0.65459,27.23045 -20.29193,0.26183 3.4038,-26.44495 z"
         id="51" />
      <path
         d="m 122.73681,949.50135 17.01903,-0.13093 0.39276,26.31406 -16.88812,0.65456 z"
         id="52" />
      <path
         d="m 93.542619,576.12995 0.392754,-13.35339 27.623197,0 -0.26183,14.53164 z"
         id="36" />
      <path
         d="m 93.67354,575.99902 -0.523654,5.89122 1.963728,0.52367 -0.261833,5.76027 -1.309162,0.65459 0,0.65458 26.968621,1.17822 0.7855,-13.35337 z"
         id="35" />
      <path
         d="m 93.542619,589.74517 -0.261822,13.48431 27.099533,1.04734 0.13091,-13.3534 z"
         id="34" />
      <path
         d="m 93.149886,603.22948 0,12.82973 26.706794,1.57101 0.52365,-13.22249 z"
         id="33" />
      <path
         d="m 93.149886,615.9283 -0.392754,7.33128 1.701895,0 -0.392733,6.02213 25.135796,2.35647 0.52365,-13.74615 z"
         id="32" />
      <path
         d="m 94.197205,629.15078 -0.130911,0.7855 -2.09466,-0.13091 -1.047319,12.17514 27.754105,3.01106 0.65458,-13.35339 z"
         id="31" />
      <path
         d="m 91.186147,641.8496 -1.178244,13.87705 26.968617,2.61832 1.57099,-13.3534 z"
         id="30" />
      <path
         d="m 116.84561,658.21406 -0.65458,12.69881 -25.397637,-1.83282 0.785498,-5.76029 -2.225567,-0.39274 0.654579,-7.06945 z"
         id="29" />
      <path
         d="m 116.19103,670.91287 -1.04733,12.82973 -26.968615,-1.96373 0.916407,-12.43699 1.701901,-0.26183 z"
         id="28" />
      <path
         d="m 115.01279,683.7426 -0.91641,13.87706 -26.968621,-2.4874 1.309156,-13.22248 z"
         id="27" />
      <path
         d="m 114.22729,697.75057 -1.17824,13.35339 -25.135798,-2.6183 0.392748,-5.36754 -1.832819,-0.13091 0.785494,-7.72404 z"
         id="26" />
      <path
         d="m 112.91814,711.10396 -0.7855,12.56791 -27.099531,-2.35648 1.047324,-11.25875 1.963737,0.13091 0,-1.83281 z"
         id="25" />
      <path
         d="m 112.13264,723.80278 -0.78549,13.09156 -27.361365,-2.6183 1.178238,-12.82973 z"
         id="24" />
      <path
         d="m 111.08532,737.02527 -0.9164,12.82974 -25.397642,-2.22557 0.392745,-4.45114 -2.094648,-0.13091 0.785492,-8.77135 z"
         id="23" />
      <path
         d="m 110.29983,749.85501 -1.17824,13.61521 -27.099541,-2.61831 0.91641,-11.25875 1.832819,0 0.261831,-1.83281 z"
         id="22" />
      <path
         d="m 109.12159,763.47022 -0.65458,13.48431 -27.361372,-2.74923 1.047326,-13.35339 z"
         id="21" />
      <path
         d="m 81.236556,774.07439 -1.047326,8.90226 2.094652,0.26184 -0.392749,4.05839 25.135807,2.09464 1.57098,-12.17515 z"
         id="20" />
      <path
         d="m 106.63419,789.39152 -0.39275,13.61522 -27.492282,-2.4874 0.916409,-11.12782 2.225566,0.26183 0,-2.35647 z"
         id="19" />
      <path
         d="m 106.37235,803.00674 -1.44006,13.48432 -27.361373,-2.48739 1.178241,-13.35341 z"
         id="18" />
      <path
         d="m 104.67045,816.62197 -0.78549,12.96064 -25.659465,-1.96372 0.130918,-3.92747 -1.440075,0 0.785495,-9.55684 z"
         id="17" />
      <path
         d="m 103.88496,829.4517 -0.91641,13.3534 -27.623198,-1.96373 0.916409,-10.99691 1.963734,-0.26185 0.130918,-1.96372 z"
         id="16" />
      <path
         d="m 102.96855,842.93601 -1.04732,12.96066 -27.492289,-2.22556 1.047326,-12.69883 z"
         id="15" />
      <path
         d="m 102.05214,855.89667 -0.91641,14.00796 -27.885028,-2.22556 1.178239,-14.00796 z"
         id="14" />
      <path
         d="m 101.00482,869.6428 -1.309153,13.09157 -25.659471,-1.96373 0.261831,-6.15304 -1.701902,-0.39276 0.785493,-6.28394 z"
         id="13" />
      <path
         d="m 99.695667,882.73437 -0.523665,13.35341 -27.75412,-2.35648 0.785494,-12.56791 1.83282,0 0,-0.39275 z"
         id="12" />
      <path
         d="m 99.041081,895.95686 -1.309152,13.35337 -27.754119,-2.35648 1.570989,-13.35338 z"
         id="11" />
      <path
         d="m 97.731929,909.44115 -0.916409,13.48432 -25.921298,-2.35647 0.261828,-5.49846 -1.570987,-0.26185 0.523664,-7.98585 z"
         id="10" />
      <path
         d="m 96.553687,922.92547 -1.178251,13.09156 -27.754106,-2.35649 1.17824,-12.17514 2.094652,0.26182 0.130913,-0.91639 z"
         id="9" />
      <path
         d="m 95.506368,936.01703 -1.047341,13.35339 -28.015939,-2.61831 1.178242,-12.96065 z"
         id="8" />
      <path
         d="m 94.459027,949.50135 -1.309141,13.4843 -28.14687,-3.14197 0.261831,-4.05838 1.83282,0.26182 0.916409,-7.06944 -1.832821,-0.26184 0.261833,-1.96373 z"
         id="7" />
      <path
         d="m 92.888043,963.11658 -0.916409,12.82972 0,0.39274 -28.670521,-3.40379 1.701903,-13.09157 z"
         id="6" />
      <path
         d="M 91.971634,976.46996 90.40065,988.77603 61.861042,985.89588 63.43203,973.06617 z"
         id="5" />
      <path
         d="m 90.40065,988.51419 -1.047326,14.13891 -29.06327,-3.01107 1.701902,-13.74615 z"
         id="4" />
      <path
         d="m 89.222409,1002.784 -1.83282,14.008 -28.408692,-3.2729 1.309157,-13.74615 z"
         id="3" />
      <path
         d="m 87.389589,1016.792 -1.832817,13.7461 -28.408694,-3.5348 1.701904,-13.6151 z"
         id="2" />
      <path
         d="m 85.425856,1030.4073 -1.570989,14.008 -27.492283,1.0473 1.440073,-6.6768 -1.832819,-0.5237 1.440071,-10.9969 z"
         id="1" />
      <path
         d="m 117.65877,804.9162 -1.13247,12.61899 20.86987,-0.32356 -0.64712,-12.78077 z"
         id="path3222" />
    </g>
  </g>
</svg>
