<?xml version="1.0" encoding="UTF-8" standalone="no"?>
<svg
   xmlns:svg="http://www.w3.org/2000/svg"
   xmlns="http://www.w3.org/2000/svg"
   width="500"
   height="500"
   version="1.1">
   <path
      d="m 110.19302,123.14633 8.16946,31.72473 -36.762559,5.85477 -5.037833,-28.18463 z"
      id="19" />
   <path
      d="m 110.19302,123.28248 -4.62936,-10.75645 -32.269355,9.93951 3.267783,10.07566 z"
      id="20" />
   <path
      d="m 186.57746,419.69766 18.65359,49.28906 -63.04098,30.90779 -12.5265,-69.16809 z"
      id="1" />
   <path
      d="m 174.8679,363.87301 20.28749,-5.44629 1.90621,9.93952 -20.01518,5.58244 z"
      id="42" />
   <path
      d="m 196.92544,368.36624 2.45084,10.07566 -20.28749,5.85476 -1.90621,-10.48413 z"
      id="41" />
   <path
      d="m 199.31555,378.43952 3.3357,8.8396 -21.76545,7.00497 -1.75124,-9.84031 z"
      id="40" />
   <path
      d="m 180.96919,394.28409 2.50178,11.50818 22.93294,-7.58872 -3.66927,-10.75763 z"
      id="39" />
   <path
      d="m 206.32052,398.20355 7.17175,19.68062 -23.51669,10.84103 -3.58587,-9.00638 -2.83535,-14.00995 z"
      id="38" />
   <path
      d="m 152.19878,396.78587 -28.43685,4.75338 -4.41981,-27.43613 28.10328,-5.17035 z"
      id="3" />
   <path
      d="m 152.11538,396.70249 28.35346,-4.50321 -5.5873,-28.35344 -27.35275,5.08693 z"
      id="36" />
   <path
      d="m 180.47868,392.20209 5.80796,27.73598 -56.65725,10.78621 -5.80796,-29.03981 z"
      id="2" />
   <path
      d="m 338.36038,362.92524 -27.97304,12.09004 -16.83122,-48.00457 30.81775,-10.54915 z"
      id="161" />
   <path
      d="m 363.1331,28.078523 2.84473,14.579165 -22.6392,3.200305 -2.48911,-16.120053 z"
      id="867" />
   <path
      d="M 358.03632,0.10548758 363.1331,28.197053 337.88626,30.212059 330.89301,10.299052 z"
      id="191" />
   <path
      d="m 319.63268,14.803184 9.60091,25.839498 -32.83276,13.275339 -10.54916,-26.313617 z"
      id="189" />
   <path
      d="m 319.63268,14.803184 11.37884,-4.385604 7.1118,19.675949 -10.90475,3.911485 z"
      id="path5125" />
   <path
      d="m 382.31009,130.25034 2.37151,11.7544 -24.23058,3.91814 -2.37151,-12.06373 z"
      id="202" />
   <path
      d="m 382.20698,130.25034 -2.78394,-16.29119 -24.64301,3.19637 3.19637,16.60052 z"
      id="201" />
   <path
      d="m 384.78471,142.21096 2.06217,11.13575 -23.81813,4.53679 -2.2684,-11.65129 z"
      id="203" />
   <path
      d="m 386.74377,153.44982 7.42384,37.94405 -58.97824,11.03264 -7.93938,-37.84093 z"
      id="path5133" />
   <path
      d="m 366.53445,207.37574 29.79844,-4.94923 2.06217,12.16684 -21.03419,3.5057 0.41243,2.06218 -8.45491,1.64974 z"
      id="210" />
   <path
      d="m 377.36087,218.09905 21.03419,-3.40259 1.95908,10.31088 -20.82799,3.50571 z"
      id="211" />
   <path
      d="m 379.62926,228.51305 20.62178,-3.50571 1.95906,9.38291 -21.13732,4.12435 z"
      id="212" />
   <path
      d="m 361.06967,219.95501 1.95908,10.5171 -20.00311,3.81503 -2.68084,-10.92954 z"
      id="207" />
   <path
      d="m 361.17277,220.05812 -1.95906,-11.13575 -21.54974,3.71192 2.68083,10.72331 z"
      id="206" />
   <path
      d="m 359.11061,208.92237 -1.44353,-10.62021 -22.47771,4.12435 2.5777,10.20778 z"
      id="205" />
   <path
      d="m 363.02875,230.47211 1.95906,10.31089 -19.59068,4.12435 -2.06217,-10.72332 z"
      id="208" />
   <path
      d="m 369.31839,222.1203 8.3518,-1.85596 3.40259,18.04404 -8.97047,1.1342 z"
      id="213" />
   <path
      d="m 395.19869,348.63483 4.94922,27.73627 -16.4974,3.5057 -5.87721,-27.83939 z"
      id="219" />
   <path
      d="m 377.7733,352.14052 -33.71659,6.49585 5.67099,15.15701 29.69534,-13.9197 z"
      id="169" />
   <path
      d="m 365.40024,366.47264 8.76426,20.20933 9.79533,-4.743 -4.43368,-21.96218 z"
      id="168" />
   <path
      d="m 365.40024,366.47264 -10.00154,4.74301 9.07358,20.00311 9.79533,-4.53679 z"
      id="167" />
   <path
      d="m 325.39401,385.6509 9.17669,19.69377 -9.69222,4.94922 -8.76426,-20.1062 z"
      id="163" />
   <path
      d="m 316.01111,389.98145 -3.91812,-10.31087 20.93108,-9.48601 4.22747,9.79533 z"
      id="162" />
   <path
      d="m 325.1878,385.6509 10.31089,-4.74301 9.07358,19.79688 -9.69225,4.74301 z"
      id="164" />
   <path
      d="m 335.29247,381.32032 9.89844,-5.36167 10.00157,19.90001 -10.31089,4.6399 z"
      id="165" />
   <path
      d="m 345.19091,376.06176 10.31089,-4.84611 8.97048,19.9 -9.2798,4.43369 z"
      id="166" />
   <path
      d="m 357.35776,311.10322 2.16528,11.03264 -21.44662,3.5057 -2.1653,-10.92954 z"
      id="173" />
   <path
      d="m 359.52304,322.23897 2.16529,10.82643 -21.65285,3.7119 -1.75285,-11.03264 z"
      id="172" />
   <path
      d="m 361.58523,332.96229 2.26838,10.62021 -21.54975,4.12434 -2.06217,-10.72332 z"
      id="171" />
   <path
      d="m 363.6474,343.5825 2.37151,10.51708 -21.65286,4.53679 -1.85597,-10.82642 z"
      id="170" />
   <path
      d="m 308.58729,386.99129 11.13575,25.571 -23.09638,11.54818 -12.06373,-26.18964 z"
      id="127" />
   <path
      d="m 261.26034,414.72757 10.00155,21.65285 -13.40415,6.59896 -10.31088,-21.75596 z"
      id="75" />
   <path
      d="m 247.64997,421.32655 -13.30104,5.87719 10.00156,22.0653 13.61036,-6.18653 z"
      id="74" />
   <path
      d="m 235.89557,430.60634 -11.44508,4.84612 8.97046,19.17823 11.03265,-5.05233 z"
      id="73" />
   <path
      d="m 227.64686,411.63431 8.24871,19.17825 -11.6513,4.53679 -7.93938,-18.6627 z"
      id="72" />
   <path
      d="m 227.54375,411.63431 29.07669,-13.61035 6.08342,12.78549 -2.3715,1.03107 1.2373,2.88705 -27.01451,12.37306 z"
      id="76" />
   <path
      d="m 233.62717,454.52758 -28.25181,14.22902 -15.36322,-40.21245 23.4057,-10.62021 2.88705,-1.13418 z"
      id="37" />
   <path
      d="m 237.4422,394.10581 3.81503,11.03264 -19.59068,8.97048 -4.43368,-13.61037 z"
      id="71" />
   <path
      d="m 233.42095,381.62964 4.12436,12.47617 -20.20933,6.39275 -4.22746,-12.37306 z"
      id="70" />
   <path
      d="m 233.52406,381.73275 -3.09326,-10.82642 -20.62177,7.01141 3.19638,10.20776 z"
      id="69" />
   <path
      d="m 233.31784,381.62964 19.90001,-7.42384 -3.29949,-9.89843 -19.59067,6.59896 z"
      id="79" />
   <path
      d="m 233.42095,381.73275 19.7969,-7.42384 3.19637,8.97047 -19.69378,7.63006 z"
      id="78" />
   <path
      d="m 257.96085,382.66074 3.71192,11.03264 -6.18653,2.26839 1.1342,2.16529 -15.26011,7.01139 -4.63989,-14.22901 z"
      id="77" />
   <path
      d="m 285.38781,400.18923 11.13575,23.71503 -25.15856,12.57927 -11.03264,-24.33367 z"
      id="126" />
   <path
      d="m 249.81526,364.20426 -3.40259,-10.31089 -19.48757,6.18653 3.5057,10.82643 z"
      id="80" />
   <path
      d="m 226.82199,360.28611 -21.0342,6.28964 3.81503,11.34199 20.72487,-7.11452 z"
      id="68" />
   <path
      d="m 226.82199,360.38922 -1.75285,-6.80517 -4.33057,1.03109 -1.85596,-6.39274 -17.63161,4.84611 4.6399,13.30103 z"
      id="67" />
   <path
      d="m 226.82199,360.38922 19.79689,-6.39274 -2.06217,-5.98032 -19.48757,5.56789 z"
      id="81" />
   <path
      d="m 240.53546,322.34208 3.19638,13.19791 -23.50882,7.01141 -3.50569,-15.157 z"
      id="83" />
   <path
      d="m 240.22614,322.44518 -2.06218,-10.31089 -23.61192,4.74301 2.3715,10.5171 z"
      id="84" />
   <path
      d="m 238.06085,312.2374 -2.99015,-13.40413 -23.3026,5.05232 2.88705,13.09482 z"
      id="85" />
   <path
      d="m 227.33753,266.97263 -2.26839,-11.23886 -22.58083,4.6399 2.26839,11.03265 z"
      id="88" />
   <path
      d="m 224.96603,255.93999 -3.29948,-14.95078 -22.68394,4.74301 3.29948,14.95078 z"
      id="89" />
   <path
      d="m 216.61422,218.51149 2.47461,11.13575 -17.32228,3.40259 -2.37151,-11.13575 z"
      id="91" />
   <path
      d="m 216.71733,218.71771 -2.78394,-11.44508 -17.21918,3.5057 2.78394,11.34197 z"
      id="92" />
   <path
      d="m 219.19194,229.75035 2.3715,11.34197 -22.58083,4.6399 -2.06218,-9.17669 5.46477,-1.34041 -0.51555,-2.26839 z"
      id="90" />
   <path
      d="m 211.25256,196.03377 2.88704,11.23886 -17.42539,3.29948 -0.61865,-2.06218 -1.54663,0.20622 -2.06218,-9.3829 z"
      id="93" />
   <path
      d="m 211.04634,196.03377 -1.85596,-10.82643 -19.07513,3.5057 2.47461,10.62021 z"
      id="95" />
   <path
      d="m 206.50955,173.55604 2.57772,11.85752 -18.86891,3.19637 -2.3715,-11.23886 z"
      id="96" />
   <path
      d="m 213.10852,172.11252 21.24041,-4.12435 2.68083,11.6513 -21.44663,3.91813 z"
      id="108" />
   <path
      d="m 215.78935,183.5576 2.16528,11.44508 21.75596,-3.91814 -2.57772,-11.23886 z"
      id="109" />
   <path
      d="m 239.8137,191.08454 2.68083,11.54819 -21.96218,3.71192 -2.3715,-11.44508 z"
      id="110" />
   <path
      d="m 242.49453,202.63273 2.57772,11.44508 -21.85907,4.6399 -2.57772,-12.26995 z"
      id="111" />
   <path
      d="m 245.07225,214.28403 3.09327,12.47617 -24.84923,4.94922 -2.88705,-12.26995 z"
      id="112" />
   <path
      d="m 248.06241,226.55398 6.18653,26.08653 -24.95234,5.15544 -5.77409,-26.18964 z"
      id="113" />
   <path
      d="m 256.92976,264.49803 2.78394,12.16684 -22.99326,4.94922 -2.68083,-12.26995 z"
      id="115" />
   <path
      d="m 256.82666,264.60113 -2.57772,-12.06373 -23.09638,4.84612 2.99016,11.96062 z"
      id="114" />
   <path
      d="m 259.6106,276.66487 3.40258,14.43523 -23.09637,4.74301 -3.09326,-14.12591 z"
      id="116" />
   <path
      d="m 263.01318,291.1001 3.09327,14.64145 -22.78705,4.743 -3.40259,-14.53833 z"
      id="117" />
   <path
      d="m 244.4536,348.01616 -0.61866,-12.26995 -26.29274,7.63005 3.09326,11.13577 z"
      id="82" />
   <path
      d="m 289.30593,334.40581 6.70207,23.09636 -13.09481,4.12436 -6.90829,-23.71502 z"
      id="129" />
   <path
      d="m 297.24531,366.88509 9.48601,21.1373 -13.19792,5.98031 -9.3829,-21.96217 z"
      id="128" />
   <path
      d="m 286.93444,392.24986 -3.81504,-8.55805 -17.42538,7.11452 3.91813,10.20776 z"
      id="125" />
   <path
      d="m 283.1194,383.79492 -3.81502,-10.20776 -17.83783,6.39274 4.22747,10.51711 z"
      id="124" />
   <path
      d="m 279.30438,373.58716 -3.5057,-10.414 -18.97202,5.05233 4.43368,11.65131 18.55958,-6.18653 z"
      id="123" />
   <path
      d="m 273.01474,350.8001 3.09327,12.37306 -19.38446,5.05233 -3.09327,-12.68238 z"
      id="122" />
   <path
      d="m 272.80852,350.90321 -2.16528,-9.79533 -19.28135,4.43368 2.26839,10.00155 z"
      id="121" />
   <path
      d="m 270.54013,341.10788 -2.3715,-10.51711 -19.17824,5.15544 2.26839,10.10467 z"
      id="120" />
   <path
      d="m 266.93132,316.8773 3.19637,13.19794 -21.03419,5.67097 -3.29949,-14.33212 z"
      id="119" />
   <path
      d="m 267.24065,317.08351 -2.78394,-10.8264 -20.93109,4.12434 2.26839,10.92953 z"
      id="118" />
   <path
      d="m 324.25983,301.82342 3.09327,13.50725 -23.4057,8.24872 -4.02126,-18.25027 z"
      id="160" />
   <path
      d="m 324.15673,301.92653 -4.43369,-22.68395 -27.63317,3.91814 5.05233,22.47772 z"
      id="159" />
   <path
      d="m 300.75102,308.6286 -20.41555,4.33057 4.02124,16.18808 19.48758,-5.67097 z"
      id="130" />
   <path
      d="m 288.27486,289.14104 4.22744,21.24041 -12.06372,2.47462 -3.60881,-21.65286 z"
      id="131" />
   <path
      d="m 319.51683,279.24258 -3.09327,-12.06373 -20.51867,4.84612 2.57773,10.00155 z"
      id="158" />
   <path
      d="m 316.32046,267.17885 -2.78395,-11.03264 -20.51865,3.60881 2.78392,12.37306 z"
      id="157" />
   <path
      d="m 313.63962,256.24932 -2.68083,-11.03264 -20.62176,3.71191 2.68083,10.92954 z"
      id="156" />
   <path
      d="m 310.95879,245.31978 -3.19638,-12.06373 -20.51865,4.12435 3.19637,11.54819 z"
      id="155" />
   <path
      d="m 307.86552,233.46227 -2.06217,-11.34197 -20.51865,4.12435 1.95906,11.13575 z"
      id="154" />
   <path
      d="m 305.80335,222.32652 -2.06219,-11.13576 -20.51865,4.02125 2.1653,11.03264 z"
      id="153" />
   <path
      d="m 303.63805,210.98455 -2.26838,-11.34197 -20.41554,4.12435 2.16527,11.23886 z"
      id="152" />
   <path
      d="m 301.47278,199.64258 -2.57773,-11.6513 -20.51865,4.53679 2.3715,11.13575 z"
      id="151" />
   <path
      d="m 298.58573,187.99128 -2.4746,-12.16684 -20.00312,4.22746 2.3715,12.26995 z"
      id="150" />
   <path
      d="m 296.11113,175.92755 -2.78395,-12.06374 -20.10622,4.33058 2.47461,11.85751 z"
      id="149" />
   <path
      d="m 293.12097,164.07003 -1.85598,-8.76425 -20.10621,3.5057 1.85596,9.2798 z"
      id="148" />
   <path
      d="m 291.16189,155.61511 -1.95907,-12.57928 -20.82798,3.91814 2.88705,11.65129 z"
      id="147" />
   <path
      d="m 286.00645,113.4436 8.04249,28.66425 -25.57099,4.94923 -8.86735,-27.42695 8.35181,-4.53679 0.72176,1.95907 z"
      id="16" />
   <path
      d="m 293.01786,112.00008 21.44662,-5.25855 3.50572,14.84767 -22.16842,4.6399 z"
      id="188" />
   <path
      d="m 321.88832,142.41718 2.68084,11.34197 -21.96218,4.12435 -2.26841,-11.54819 z"
      id="186" />
   <path
      d="m 321.99143,142.52029 -3.81502,-20.82798 -22.16841,4.63989 4.22747,20.10622 z"
      id="187" />
   <path
      d="m 324.56916,153.75915 3.19637,12.99171 -22.47774,3.81503 -2.78392,-12.7855 z"
      id="185" />
   <path
      d="m 327.66242,166.54464 2.06217,10.00156 -21.75596,4.22746 -2.4746,-10.31088 z"
      id="184" />
   <path
      d="m 308.17484,180.56744 2.47462,12.99172 21.96218,-4.43368 -2.68084,-12.47617 z"
      id="path5323" />
   <path
      d="m 310.54636,193.24983 4.63989,20.72487 21.85907,-3.91813 -4.43368,-20.82799 z"
      id="182" />
   <path
      d="m 320.34169,238.41149 22.78705,-4.02124 4.22747,21.75596 -22.89016,3.91813 z"
      id="179" />
   <path
      d="m 320.23858,238.30838 -2.37149,-12.47616 22.06528,-3.81503 2.88705,12.26995 z"
      id="180" />
   <path
      d="m 317.86709,225.626 -2.57773,-11.75441 21.96218,-4.02124 2.88705,11.96062 z"
      id="181" />
   <path
      d="m 324.56916,260.06434 2.47459,10.92954 22.37463,-3.71192 -1.85595,-10.92953 z"
      id="178" />
   <path
      d="m 327.14688,270.78766 2.4746,11.34197 21.85907,-3.81502 -1.95906,-11.23887 z"
      id="177" />
   <path
      d="m 353.54272,289.34726 1.95908,11.34196 -21.65285,3.09327 -2.1653,-10.82643 z"
      id="175" />
   <path
      d="m 353.74896,289.45037 -2.26841,-11.13576 -21.96218,3.91813 2.26839,10.62021 z"
      id="176" />
   <path
      d="m 355.60491,300.68922 1.54663,10.31089 -21.34353,3.81502 -1.95906,-10.82643 z"
      id="174" />
   <path
      d="m 353.13029,159.94568 -2.57771,-11.96062 -25.98342,4.63989 2.68083,11.85752 z"
      id="199" />
   <path
      d="m 350.55258,148.08817 -1.95908,-9.89845 -26.60207,4.33057 2.37151,10.10466 z"
      id="198" />
   <path
      d="m 348.49039,138.08661 -2.26838,-10.00156 -26.18964,3.71192 1.95906,10.62021 z"
      id="197" />
   <path
      d="m 346.1189,128.08505 -1.95908,-10.00155 -25.98341,3.40259 1.85596,10.10466 z"
      id="196" />
   <path
      d="m 344.15982,117.87728 -2.4746,-11.13575 -26.29275,3.60881 2.57773,10.92953 z"
      id="195" />
   <path
      d="m 379.11372,113.95915 -2.06217,-12.47617 -24.64301,3.71192 2.16528,11.96062 z"
      id="200" />
   <path
      d="m 366.03387,42.651224 11.12454,59.267056 -62.14409,8.24752 -10.54915,-57.732634 z"
      id="194" />
   <path
      d="m 341.08658,29.73794 2.37058,16.357114 -46.34515,7.585907 32.12158,-13.038279 -2.37061,-6.519138 11.02328,-3.911485 z"
      id="192" />
   <path
      d="m 394.03706,191.40798 2.32904,11.23416 -29.86642,4.93208 -1.78104,-10.54916 z"
      id="209" />
   <path
      d="m 169.77469,238.44899 5.31479,25.30852 -14.67894,2.36214 -4.72426,-24.46492 z"
      id="46" />
   <path
      d="m 175.08948,263.92624 4.6399,23.53694 -14.76331,2.10903 -4.38681,-23.3682 z"
      id="45" />
   <path
      d="m 161.20324,88.3949 13.6834,28.71075 -45.9281,23.51645 -13.79541,-30.74182 z"
      id="50" />
   <path
      d="m 115.36024,110.06508 -9.07158,3.91981 6.71969,15.56728 9.18357,-4.03181 z"
      id="21" />
   <path
      d="m 122.19192,125.63235 6.83168,14.78331 -9.29556,4.59179 -6.60769,-15.45528 z"
      id="22" />
   <path
      d="m 134.28736,137.95178 11.08748,-5.59974 9.96753,19.03911 -10.7515,5.37575 z"
      id="49" />
   <path
      d="m 174.94146,154.639 3.47184,14.8953 -23.6309,3.91982 -2.91187,-13.77536 z"
      id="54" />
   <path
      d="m 185.46897,168.07837 3.47183,14.33533 -21.279,4.1438 -3.35985,-14.67131 z"
      id="55" />
   <path
      d="m 188.9408,182.63769 -21.279,3.91981 3.35984,15.23129 21.05502,-4.36779 z"
      id="56" />
   <path
      d="m 192.07666,197.421 2.57588,11.53546 -20.83103,4.03181 -2.68787,-11.19948 z"
      id="57" />
   <path
      d="m 196.10847,208.50848 6.15971,26.76675 -27.43872,5.59974 -6.15971,-26.65476 z"
      id="58" />
   <path
      d="m 153.99844,265.62581 2.35189,12.65541 -21.615,4.81578 -2.23989,-13.43938 z"
      id="32" />
   <path
      d="m 153.99844,265.73781 -2.12791,-13.10339 -21.95097,4.2558 2.35189,12.7674 z"
      id="31" />
   <path
      d="m 151.64655,252.9704 -2.1279,-13.77535 -21.83899,4.2558 2.2399,13.55136 z"
      id="30" />
   <path
      d="m 149.40665,239.19505 -2.1279,-12.9914 -21.95098,4.4798 2.01591,12.7674 z"
      id="29" />
   <path
      d="m 147.16675,226.42764 -1.67992,-11.19947 -21.95097,3.91981 1.67992,11.19948 z"
      id="28" />
   <path
      d="m 143.02295,202.34877 2.57588,13.10339 -22.17497,3.47183 -2.23989,-13.10338 z"
      id="27" />
   <path
      d="m 143.24694,202.68475 -1.90391,-12.43142 -22.84694,3.80783 2.68788,11.53546 z"
      id="26" />
   <path
      d="m 138.65515,176.58997 2.46389,13.88735 -22.28696,3.58384 -2.1279,-13.66337 z"
      id="25" />
   <path
      d="m 138.65515,176.70197 -1.79191,-10.19153 -21.95098,3.91982 1.67992,9.85554 z"
      id="24" />
   <path
      d="m 157.02229,187.34147 4.03182,21.72698 -10.8635,1.67993 -3.80782,-21.95098 z"
      id="48" />
   <path
      d="m 161.05411,209.18045 4.36779,21.95097 -11.19947,1.79192 -3.91982,-22.06297 z"
      id="47" />
   <path
      d="m 156.35033,278.39322 2.0159,10.97547 -21.95097,4.03183 -1.56793,-10.19153 z"
      id="33" />
   <path
      d="m 158.59022,289.14471 1.56793,8.73559 -22.17497,4.36781 -1.45593,-8.95958 z"
      id="34" />
   <path
      d="m 121.74394,210.07641 2.79987,14.67131 -30.238585,5.37575 -2.79987,-15.56727 z"
      id="13" />
   <path
      d="m 121.63195,210.07641 -1.90391,-11.75945 -30.238591,5.26375 2.1279,10.6395 z"
      id="14" />
   <path
      d="m 117.93612,187.90144 1.56793,10.41552 -30.014601,5.48774 -1.903911,-10.97549 z"
      id="15" />
   <path
      d="m 112.11239,155.75894 1.67992,10.30352 -30.238584,5.15176 -1.791916,-10.41551 z"
      id="18" />
   <path
      d="m 113.79231,165.95047 2.1279,11.08748 -30.238583,5.03976 -2.015906,-10.86349 z"
      id="17" />
   <path
      d="m 115.80822,176.92596 2.0159,10.97548 -30.238582,4.92777 -1.679922,-10.7515 z"
      id="path5419" />
   <path
      d="m 134.06337,138.06377 10.5275,18.47914 -16.12724,8.3996 -9.74355,-19.03911 z"
      id="23" />
   <path
      d="m 259.38551,119.92062 -19.48709,9.29556 7.05568,27.32673 22.84693,-4.14381 z"
      id="143" />
   <path
      d="m 246.9541,156.54291 3.80782,15.67926 22.51094,-4.03181 -3.80782,-15.56727 z"
      id="142" />
   <path
      d="m 273.27286,168.30236 -22.51094,3.91981 3.13585,12.43142 21.95097,-4.81577 z"
      id="141" />
   <path
      d="m 276.07273,180.1738 -21.95097,4.47979 2.68788,12.09544 21.61498,-4.14381 z"
      id="140" />
   <path
      d="m 281.0005,203.9167 -21.83898,4.47979 2.91187,11.42346 20.94301,-4.36779 z"
      id="138" />
   <path
      d="m 280.88851,204.02869 -2.35189,-11.31147 -21.72698,4.03181 2.46388,11.75945 z"
      id="139" />
   <path
      d="m 292.98394,259.69009 -21.72698,3.47184 2.35189,11.64745 21.95098,-3.91981 z"
      id="133" />
   <path
      d="m 292.98394,259.57809 -2.57588,-10.5275 -21.279,3.02386 2.1279,10.97548 z"
      id="134" />
   <path
      d="m 285.4803,226.42764 -21.05502,4.14381 -2.2399,-10.52751 21.16701,-4.59178 z"
      id="137" />
   <path
      d="m 285.2563,226.31565 2.12791,11.19948 -20.15906,4.36779 -2.68788,-11.08748 z"
      id="136" />
   <path
      d="m 287.2722,237.73912 3.24785,11.42346 -21.279,2.79987 -2.1279,-10.07953 z"
      id="135" />
   <path
      d="m 273.72085,274.69739 2.0159,11.31146 22.73494,-3.91981 -3.02385,-11.19947 z"
      id="132" />
   <path
      d="m 417.85812,315.57549 8.84758,46.70182 -28.11069,5.26375 -8.6236,-45.58188 z"
      id="220" />
   <path
      d="m 415.73021,305.60795 2.12791,10.19152 -25.42282,5.71173 -2.3519,-11.87144 z"
      id="216" />
   <path
      d="m 390.0834,309.63976 -24.30286,3.47183 2.35189,12.65542 24.19088,-4.25581 z"
      id="215" />
   <path
      d="m 389.85942,321.95918 2.57588,13.10338 -21.503,3.69583 -2.57587,-12.7674 z"
      id="217" />
   <path
      d="m 392.4353,335.17457 2.57589,13.43937 -21.39101,4.2558 -2.57589,-13.88735 z"
      id="218" />
   <path
      d="m 224.10716,137.16781 6.27171,23.74289 -22.51095,5.59974 -6.83168,-21.83898 19.03911,-8.62359 z"
      id="106" />
   <path
      d="m 201.03624,144.67146 -19.3751,8.95958 2.35189,8.51161 20.60704,-5.71174 z"
      id="98" />
   <path
      d="m 204.73207,156.20692 3.13585,10.41552 -21.391,5.37575 -2.35189,-9.96754 z"
      id="97" />
   <path
      d="m 196.78044,236.17119 2.68787,12.7674 -20.27105,3.47184 -2.2399,-11.75945 z"
      id="59" />
   <path
      d="m 199.46831,249.16258 -20.15906,3.13585 1.67993,9.85554 20.60703,-3.69582 z"
      id="60" />
   <path
      d="m 205.18005,275.14537 -20.71904,3.80782 -3.13585,-16.68722 20.38305,-3.69583 z"
      id="61" />
   <path
      d="m 205.51603,275.25736 4.59179,20.27105 -21.39101,3.80782 -4.1438,-20.60703 z"
      id="62" />
   <path
      d="m 209.88383,295.52841 2.79986,13.88737 -21.16701,3.91981 -2.57588,-13.77536 20.38305,-3.80782 z"
      id="63" />
   <path
      d="m 212.90768,309.30377 2.79987,13.88734 -21.279,4.25581 -2.57588,-14.22332 z"
      id="64" />
   <path
      d="m 215.93154,322.96713 2.57588,11.87145 -21.95097,4.70378 -2.1279,-11.87144 z"
      id="65" />
   <path
      d="m 218.39543,334.72659 1.67992,7.72764 -2.68787,0.89596 1.45593,4.81577 -17.69518,4.70378 -4.36779,-13.21539 z"
      id="66" />
   <path
      d="m 174.94146,295.08043 4.1438,23.51891 -11.31147,1.90391 -4.03181,-23.4069 z"
      id="44" />
   <path
      d="m 163.85398,297.20834 -56.33337,11.42347 5.93572,32.81447 56.22137,-9.96754 z"
      id="5" />
   <path
      d="m 179.19726,318.71133 4.2558,23.96688 -11.31147,1.67993 -4.2558,-23.96688 z"
      id="43" />
   <path
      d="m 169.7897,331.47874 2.46388,12.99139 -26.87874,4.70378 -2.35189,-13.21539 z"
      id="35" />
   <path
      d="m 142.91095,336.18252 -29.56662,5.37574 2.3519,13.1034 29.7906,-5.48775 z"
      id="4" />
   <path
      d="m 124.43182,224.97171 1.90391,13.21538 -29.79061,6.04772 -2.239895,-14.11134 z"
      id="12" />
   <path
      d="m 126.67171,238.0751 1.45593,9.29557 -30.014593,6.04771 -1.567927,-9.07157 z"
      id="11" />
   <path
      d="m 128.23964,247.37067 2.23989,12.6554 -29.67861,6.04772 -2.575879,-12.54341 z"
      id="10" />
   <path
      d="m 130.47953,260.02607 2.01591,11.42347 -30.12659,6.15971 -1.67992,-11.31147 z"
      id="9" />
   <path
      d="m 132.83142,271.44954 1.79192,11.75945 -29.9026,5.82373 -2.2399,-11.42347 z"
      id="8" />
   <path
      d="m 134.62334,283.20899 1.67992,10.7515 -29.79061,6.15971 -1.79191,-11.08748 z"
      id="7" />
   <path
      d="m 136.30326,293.73651 1.67992,8.73558 -30.35058,6.15972 -1.00795,-8.73559 z"
      id="6" />
   <path
      d="m 210.77978,108.38516 12.31943,26.43076 -12.54342,5.48775 -11.87144,-26.99074 z"
      id="105" />
   <path
      d="m 204.28409,126.97629 -20.71903,10.19152 5.59973,12.8794 21.503,-9.63155 z"
      id="99" />
   <path
      d="m 204.62007,126.7523 -8.95958,-20.15906 -10.41551,5.15176 8.73559,20.04706 z"
      id="101" />
   <path
      d="m 185.46897,111.96899 -10.63951,5.15176 8.6236,19.82307 10.52751,-5.03976 z"
      id="100" />
   <path
      d="m 154.6704,127.53626 9.96754,19.15111 -9.40756,4.81577 -9.85554,-19.1511 z"
      id="51" />
   <path
      d="m 154.6704,127.76025 9.96754,-5.37575 9.85554,19.03911 -9.74355,5.26376 z"
      id="52" />
   <path
      d="m 164.74993,122.4965 10.07953,-5.48775 8.7356,19.93507 -9.07158,4.3678 z"
      id="53" />
   <path
      d="m 194.65254,72.882815 9.40756,20.383048 -11.08748,5.039764 -9.18358,-20.607037 z"
      id="104" />
   <path
      d="m 183.78904,77.810584 -11.08748,4.815775 9.29557,20.495041 10.97549,-4.815773 z"
      id="103" />
   <path
      d="m 172.70156,82.626359 -11.53546,5.935723 9.63155,20.159058 11.19948,-5.37575 z"
      id="102" />
   <path
      d="M 240.30037,52.024293 267.6164,115.27141 224.54112,137.54448 194.91374,72.826501 z"
      id="144" />
   <path
      d="m 240.30037,52.234417 46.64738,-21.852824 9.66566,23.323687 7.9847,-1.050617 9.8758,54.211817 -45.38665,10.50616 z"
      id="145" />
   <path
      d="m 402.30544,234.62145 13.23777,71.44193 -57.57379,8.40493 -12.81752,-69.13057 z"
      id="214" />
   <path
      d="m 204.483,271.74311 23.09901,-4.72893 2.36447,10.73104 -22.91713,4.54704 z"
      id="87" />
   <path
      d="m 207.39312,282.11038 22.55336,-4.18328 2.54635,10.91291 -22.91713,4.72893 z"
      id="86b" />
   <path
      d="m 209.75758,293.56894 1.09129,-0.18188 21.82584,-4.54705 2.0007,10.00351 -23.09901,5.27458 z"
      id="86a" />
</svg>
