<?xml version="1.0" encoding="UTF-8" standalone="no"?>
<!-- Created with Inkscape (http://www.inkscape.org/) -->

<svg
   xmlns:dc="http://purl.org/dc/elements/1.1/"
   xmlns:cc="http://creativecommons.org/ns#"
   xmlns:rdf="http://www.w3.org/1999/02/22-rdf-syntax-ns#"
   xmlns:svg="http://www.w3.org/2000/svg"
   xmlns="http://www.w3.org/2000/svg"
   version="1.1"
   width="744.09448"
   height="1052.3622"
   id="svg2">
  <defs
     id="defs4" />
  <metadata
     id="metadata7">
    <rdf:RDF>
      <cc:Work
         rdf:about="">
        <dc:format>image/svg+xml</dc:format>
        <dc:type
           rdf:resource="http://purl.org/dc/dcmitype/StillImage" />
        <dc:title></dc:title>
      </cc:Work>
    </rdf:RDF>
  </metadata>
  <g
     id="layer1">
    <path
       d="m 627.69855,-895.49732 c 2.8677,25.88475 -6.8025,67.10349 15.4835,99.59968 -12.1092,-1.13466 -24.751,-9.2288 -66.5964,14.02905 15.5928,6.31431 20.6025,19.5401 35.0144,29.57073 -5.5175,0.23471 -11.0626,0.6402 -16.6221,1.20511 0.016,-0.0158 0.035,-0.0365 0.05,-0.0499 -18.6198,-4.28369 -9.7342,-14.18744 -43.0845,-25.49832 2.7967,7.92926 -1.5864,8.56156 4.5711,17.46984 -9.366,-4.35704 -49.3054,4.03936 -72.3062,7.84564 0.9254,-19.63698 -12.5054,-33.80833 -24.0855,-55.6342 -11.8746,18.80524 -19.6751,26.54144 -22.4066,45.91857 -4.8668,-24.14128 -44.7559,-31.53297 -93.358,-19.78031 16.9518,14.98895 34.7827,47.15433 68.0924,55.07738 -8.4569,6.3296 -21.3188,8.4881 -34.682,47.855 15.093,-5.5289 26.8257,1.7864 44.4642,-2.2107 -10.4368,9.0104 -19.3751,18.5172 -26.4043,28.3075 -3.8171,3.8651 -7.1611,7.1891 -9.5328,9.2585 0.9727,0.3991 1.9196,0.775 2.8507,1.1469 -3.2904,5.8102 -5.8836,11.6908 -7.7043,17.6028 7.041,-57.0145 -22.1506,-59.0335 -28.0166,-86.0859 -30.0481,37.2703 -24.2205,51.105 -25.1658,63.2305 -28.2234,-27.4974 -70.4848,-24.9938 -95.5024,-32.2303 18.5112,54.4992 50.2715,88.7214 76.7443,78.5644 -17.1595,14.6059 -19.8795,26.9569 -30.8506,50.0991 45.2045,-3.511 74.3867,9.5764 98.8018,-57.4377 -3.7429,-2.2054 -14.5229,-2.9425 -21.2264,-2.6263 -9.6667,16.3526 -13.5697,25.2208 -47.3731,38.6215 26.5593,-22.8773 37.7084,-26.9078 38.5301,-40.5497 -16.1174,-0.3053 -61.7558,-15.6393 -73.6609,-35.7625 15.2811,12.6758 61.0205,29.4323 77.9909,30.6595 6.9127,-12.0677 2.0855,-12.0419 0.5901,-27.5428 9.1579,15.3348 10.1496,10.1746 6.5408,27.2603 5.3854,0.031 16.7668,2.21 20.2208,3.3659 -6.2575,32.5477 6.9427,60.9137 27.6094,87.557 -0.1071,0.082 -0.2071,0.1679 -0.2992,0.2493 0.1381,0.2991 0.2719,0.5671 0.4072,0.8561 -0.3904,-0.5263 -0.7863,-1.0766 -1.1885,-1.6789 -0.6715,1.7475 -9.7323,12.1071 -14.4778,15.791 13.2624,11.36 11.513,21.728 13.5802,39.4692 -8.248,-13.2092 -6.5766,-29.9875 -19.4063,-35.3552 -12.7182,11.3027 -31.9096,28.796 -36.3193,48.1543 -2.8018,-23.2126 17.1678,-39.5152 29.7702,-49.5672 -8.955,-10.3239 -27.647,3.9409 -55.2519,-8.7183 24.3892,3.6861 43.48,-5.2795 61.1029,1.8118 5.5113,-3.8291 13.615,-10.9735 15.2425,-15.0014 -31.2156,-23.527 -26.9313,-10.9786 -50.4897,-22.7058 1.5184,4.9249 3.7608,10.2437 8.9344,12.0759 -75.6718,-6.6725 -73.6099,22.2997 -93.6988,26.9611 22.7903,11.6845 39.5786,30.0714 62.0835,31.2163 -31.446,26.6393 -11.2342,60.8612 -20.2291,88.2967 15.4456,-20.9686 50.7462,-16.2562 73.0958,-60.4879 11.161,10.616 5.5212,20.2605 27.7423,30.3852 -17.8613,3.6597 -34.1419,10.7369 -47.2068,13.1897 36.6206,32.8713 75.3586,45.8426 91.9285,28.3241 -7.4804,17.2314 -4.5835,27.3172 -3.7566,48.4451 0.4751,-0.2771 0.9485,-0.5527 1.4212,-0.8228 -7.6245,11.433 -12.7378,19.4873 -14.8352,34.3662 -4.8669,-24.1413 -44.756,-31.533 -93.3581,-19.7803 16.9518,14.989 34.7911,47.1543 68.1008,55.0774 -8.4569,6.3296 -21.3271,8.4881 -34.6903,47.855 10.7833,-3.9502 19.852,-1.3346 30.5846,-0.9807 -13.0104,7.3198 -26.3481,13.9615 -39.6686,19.9133 14.7453,-22.568 4.338,-33.5434 9.832,-48.4036 -26.194,8.6353 -27.9465,17.9841 -32.3217,23.9857 -4.3382,-24.588 -24.9894,-38.5575 -34.3912,-51.3872 -8.977,35.2028 -5.161,64.584 10.5634,68.8404 -12.7934,1.4378 -18.0793,6.9191 -30.7343,15.0597 7.4474,4.8298 13.468,9.9767 19.4063,13.7298 -29.0334,9.1061 -55.1391,14.4708 -73.8603,16.0154 -36.7412,3.0315 -73.0271,-2.4904 -107.4703,-14.0373 38.0191,7.6612 50.8522,-16.4028 78.7639,-40.1674 -24.0996,-8.668 -34.7389,-15.5111 -57.205,-13.7631 25.9306,-11.4704 24.309,-58.131 -1.0057,-109.8223 -12.6316,22.7748 -44.3566,50.8091 -44.9711,90.2083 -9.1014,-7.8255 -14.707,-21.4788 -60.5959,-26.8614 22.2594,-9.6653 22.5683,-34.4012 36.1947,-48.0545 -16.5098,8.7449 -36.5273,-4.7265 -65.0922,16.7551 -4.2931003,-13.2584 8.7235,-16.7769 -22.4731003,-43.0347 3.9031,-0.019 7.9275,0.022 12.1009,0.1995 -11.7742,-22.7441 -14.9191997,-34.9972 -32.5793997,-48.9937 26.8119997,9.2244 57.359,-26.0855 73.9518,-81.199 -10.2858,3.3695 -23.6111,5.1646 -37.6241003,8.1532 0.1514,-21.0663 17.8763003,-42.2752 0.2077,-66.4968 16.7398003,3.0776 32.2040003,-7.7945 50.9385003,-12.5829 -13.9803,-7.0159 -7.5626,-28.4153 -64.3276003,-36.6435 4.114,-0.4709 6.65989997,-4.0715 8.6103,-7.5048 -19.3063997,4.686 -14.0225997,-3.9892 -40.9568997,8.2196 0.5145,3.31 5.2566,10.0974 8.6601,13.9376 14.1575,-2.2427 26.6732997,7.8263 45.2288,9.325 -22.4393003,4.6781 -33.7633,-9.3038 -42.0955,-3.1166 7.5632,9.7547 19.4880997,25.4922 13.4971,42.4362 0.036,-15.3109 -11.1137,-31.805 -18.5502,-42.5193 -10.3416,1.7868 -11.953,14.6766 -20.2541,23.1546 4.5243,-12.9632 4.9892,-21.0569 16.6637,-27.2686 -2.4119,-3.0282 -6.2603,-10.127 -7.5381,-13.1564 13.0064,-20.297 27.0818,-39.6269 41.1230997,-57.1634 -5.2792,16.4076 -1.5705,29.8615 -10.1893997,44.0901 47.4446,-6.4012 52.7274,-20.4523 61.7512,-28.6066 1.5861,39.3719 33.9923,66.6133 47.1818,89.0695 24.032,-52.2999 24.502,-98.9865 -1.7037,-109.8139 22.5023,1.1933 32.9691,-5.9078 56.8476,-15.1677 -8.137,-6.5888 -15.0352,-13.2274 -21.6337,-19.157 7.1087,-10.5847 11.8312,-16.7849 13.6467,-29.5125 3.7716,18.4877 34.6842,24.1513 72.3478,15.151 -13.1366,-11.4787 -26.9539,-36.11102 -52.7669,-42.17859 6.4605,-4.7785 16.2402,-6.47684 26.4375,-35.40509 104.5547,-31.54559 215.0855,-35.53857 213.885,-45.72742 -2.1021,-17.84065 -185.4416,14.8594 -280.9802,56.95565 5.5755,-8.00298 10.6917,-2.6216 23.1297,-21.14332 -5.7214,0.13607 -5.3252,-2.98981 -12.3087,-0.78124 5.4468,-6.42726 7.0204,-46.27082 9.1505,-58.78411 -46.1171,12.8932 -33.993,21.52747 -43.5832,32.55442 -17.8619,-30.95744 -41.5532,-26.41666 -53.3154,-40.93196 7.7727,19.3629 -3.8834,44.55747 19.0905,62.60719 -15.2165,1.56483 -25.5039,15.29921 -40.2754,24.42619 10.5195,2.02112 13.3017,14.39016 36.0035,17.18726 -21.5942,5.70753 -33.6818,7.10503 -49.8414,20.56152 14.5194,-24.35482 -13.7964003,-61.47597 -64.3442,-89.00306 2.8677,25.88477 -6.7942,67.10351 15.4918,99.59966 -12.1092,-1.1346 -24.7511,-9.2371 -66.5965,14.0208 15.3987,6.2357 20.4782,19.2139 34.4826,29.1967 -10.8191,16.7303 -17.952,24.6576 -20.5366,42.9931 -4.8669,-24.1413 -44.756,-31.533 -93.3581,-19.7803 16.9518,14.9889 34.7911,47.1543 68.1008,55.0773 -8.4569,6.3297 -21.3271,8.4881 -34.6904,47.8551 1.0057,-0.3684 1.9968,-0.6777 2.9754,-0.9391 -5.2485,13.641 -3.3037,21.6886 -3.8813,29.097 -28.2234,-27.4974 -70.4847,-25.0021 -95.5023,-32.2386 18.5113,54.4991 50.2715,88.7213 76.7443,78.5644 -17.1595,14.6059 -19.8795,26.9652 -30.8506,50.1073 18.1518,-1.4098 33.7179,-0.1494 47.4311,-2.4684 -0.036,3.0917 -0.5018,5.3828 3.5156,11.195 -11.1226,-5.1742 -65.3608,7.6529 -83.1438,9.3998 38.3899,59.466 44.4515,39.3089 63.6461,48.5283 -33.4262,36.5873 -16.4926,67.913 -30.6179,89.7926 22.46,-18.1426 61.6136,-11.3892 75.3646,-50.2403 6.8109,15.5225 21.5998,24.5652 36.6019,35.3968 -12.6943,3.9238 -25.6851,11.1948 -41.788,17.2787 19.7629,16.2897 27.4626,26.3138 49.2015,32.2469 -28.2801,2.0507 -42.4884,46.521 -36.095,103.7219 19.574,-17.1786 58.894,-32.864 72.7633,-69.7464 6.0067,10.5755 6.6156,25.5746 49.6502997,46.5503 -1.0851,-4.7362 -1.1943,-9.0761 -0.7979,-13.2811 6.4922003,3.8476 12.9830003,6.7415 20.3122003,6.7403 -21.0043003,20.3079 -6.8343,44.1706 -12.5829,64.227797 10.2136,-15.643697 34.247,-13.551997 48.8441,-46.176197 10.6692,9.9867 -0.5037,19.8151 46.6915,27.9168 -3.4006,-12.2293 -9.0497,-51.7019 -15.1262,-57.5374 7.173,1.4817 6.4622,-1.5856 12.1674,-2.0362 -14.1956,-17.0614 -18.7684,-11.3267 -25.0827,-18.542 43.3248,20.5061 88.4401,33.4719 128.9294,36.6185 50.2555,3.9056 104.72,-6.8114 154.5773,-27.6924 -0.2793,0.2703 -0.551,0.5359 -0.8394,0.8228 4.7585,0.9946 3.8278,3.6579 10.0314,3.0834 -5.7491,4.5679 -14.7655,39.1487 -18.9492,49.6918 40.6393,-2.3127 32.2868,-12.2321 42.3531,-20.0214 8.782,30.5864 29.2588,31.2171 36.1781,46.217797 -2.6813,-18.469097 11.8266,-38.256397 -3.6818,-58.534697 12.8885,1.5919 24.0639,-8.4302 38.048,-13.5471 -5.6298,-2.5865 -7.4026,-8.6459 -13.6302,-14.4197 13.4743,-6.9064 15.3065,-13.7159 18.7581,-18.4505 4.3382,24.588 24.9894,38.5576 34.3911,51.3873 8.977,-35.2029 5.161,-64.5924 -10.5633,-68.8488 12.7934,-1.4378 18.0709,-6.919 30.726,-15.0596 -6.8821,-4.4633 -12.5376,-9.1939 -18.0433,-12.8489 13.7268,-9.04 26.6377,-17.3221 33.2525,-31.0834 12.3991,39.3035 51.7668,33.9082 73.5861,52.8168 -13.3603,-22.3551 4.6479,-53.0852 -27.493,-90.8066 19.502,-8.5501 24.8599,11.8102 65.2833,-46.2926 -17.7119,-2.3608 -71.4832,-17.0536 -82.7781,-12.2671 4.2576,-5.7257 3.8245,-8.0242 3.9062,-11.1617 3.5261,-0.01 7.1429,0.032 10.8875,0.1911 -11.7742,-22.7441 -14.9192,-34.9889 -32.5793,-48.9854 26.8119,9.2244 57.3506,-26.0938 73.9434,-81.2073 -24.749,8.1075 -67.0699,7.0949 -94.3138,35.563 -1.3691,-12.0849 3.9656,-26.1202 -27.3683,-62.3163 -2.54,14.0754 -11.5333,21.6886 -18.3924,33.585 -4.9935,-9.3553 -9.7646,-18.0122 -18.4173,-22.7972 28.2097,-7.603 27.3648,-35.3392 42.1038,-50.1074 -10.8522,5.7483 -23.2243,1.8995 -38.5384,4.6875 9.7007,-16.1841 27.6112,-29.5759 20.8442,-55.0691 6.3124,3.8927 13.364,5.2246 20.894,5.6848 -0.9178,6.6502 -2.5061,12.7684 -6.0671,18.2843 22.4601,-18.1427 61.6219,-11.3892 75.373,-50.2403 8.465,19.2924 29.2597,28.5729 47.4644,43.7244 -4.3766,2.6989 -8.5522,5.1167 -12.5414,6.9896 49.8678,28.7407 96.3063,33.5095 109.4982,8.4108 -2.522,17.2599 0.577,27.8144 5.3606,43.1178 -3.1037,-0.8022 -6.2735,-1.6701 -9.5162,-2.6512 5.7489,24.9574 5.7564,37.6111 19.3814,55.5594 -23.6761,-15.6018 -62.0444,11.0069 -91.8205,60.2634 25.9876,-1.6987 66.731,9.8124 100.198,-10.9872 -1.6789,12.0458 -10.3371,24.311 11.0122,67.1616 12.1703,-26.5487 43.7265,-20.297 46.50864,-88.0805 -1.76899,0.6124 -15.53427,0.3662 -21.40927,-0.8893 -0.14208,17.462 -0.007,12.2036 -12.24217,25.2157 4.7872,-14.8188 9.49734,-13.7574 5.3357,-27.0275 -16.8384,-2.4435 -65.1077,4.1054 -82.7532,13.2063 15.9464,-17.0993 63.8126,-22.2846 79.6199,-19.1238 2.1252,-13.5003 -7.9001,-19.8275 -28.9308,-47.8717 30.1398,20.3431 32.0414,29.8505 37.97324,47.8966 6.47948,1.7476 17.17226,3.3371 21.30125,1.9864 -7.49078,-55.9531 -28.67749,-63.5359 -58.70099,-70.777 26.8319,-24.6105 47.61861,-39.0008 24.9082,-97.3557 -4.2676,0.8123 -12.8571,7.374 -17.6859,12.0345 3.525,18.6661 6.446,27.9073 -10.1146,60.28 4.8644,-34.7145 10.5856,-45.0984 2.2025,-55.8918 -12.313,10.4044 -56.732,28.9921 -78.955,21.7251 19.8463,-0.5568 65.2763,-18.141 78.8386,-28.4155 -2.7674,-13.6292 -6.3766,-10.4234 -17.7274,-21.0852 16.9993,5.4815 14.3444,0.9449 22.9052,16.165 4.5373,-3.9376 16.4645,-10.81 18.3093,-11.1285 -1.1052,-1.8219 -2.1983,-3.5657 -3.2829,-5.2359 0.3599,0.1591 0.7076,0.3113 1.0555,0.4571 19.74729,32.3912 32.26345,72.3277 38.29735,113.795 -2.874,11.1692 -3.31216,26.1263 1.42118,48.3038 0.35303,-0.2336 1.33538,-0.5779 2.67619,-0.9724 0.0698,2.3455 0.12702,4.6915 0.15789,7.0312 -0.0381,0.023 -0.0796,0.043 -0.11635,0.066 0.0388,0.096 0.0775,0.1869 0.11635,0.2825 0.18601,15.0302 -0.43052,29.9139 -1.81181,44.3727 -4.90722,15.9347 -14.46046,43.0833 -12.37514,49.8165 -5.55942,-4.7686 -6.42507,-1.7301 -11.63548,-4.0973 0.9878,5.1728 2.12353,8.9504 3.30777,11.8432 -25.48165,8.5657 -27.25695,17.7922 -31.59035,23.7364 -4.3382,-24.588 -24.9893,-38.5576 -34.3911,-51.3873 -8.977,35.2029 -5.161,64.5841 10.5633,68.8405 -12.7933,1.4378 -18.0709,6.919 -30.7259,15.0596 22.3658,14.5049 31.8251,31.9002 65.0174,5.6682 -1.0426,-2.5068 -5.8668,-6.7928 -9.1173,-9.0508 -9.8411,5.0603 -14.555,8.293 -34.7734,3.0834 19.8891,-2.3668 26.4325,-0.4408 31.2412,-7.2804 -7.4695,-5.9862 -23.9221,-30.5141 -22.9883,-45.3452 3.0661,12.1555 19.1072,37.4629 26.6784,44.2398 7.1587,-3.8143 4.8852,-5.5455 9.2087,-14.1953 -0.6714,11.333 1.4662,8.9884 -5.7679,16.6221 2.6315,2.0509 7.5951,7.7049 8.5687,9.3084 -64.0296,85.8175 -211.6217,150.3896 -227.2242,156.946 -18.1234,7.6156 -11.0081,21.0141 2.9836,14.9266 13.9918,-6.0875 212.4363,-71.7472 253.5371,-203.8951 1.01568,-3.2657 1.99375,-6.5072 2.93379,-9.7239 3.23716,-1.4299 7.60014,-3.118 10.13949,-3.6901 -4.29196,-11.1534 0.27164,-17.2171 4.97833,-29.1054 0.60111,10.8414 -6.06082,21.0076 -0.0166,28.2244 11.58723,-3.411 29.21589,-8.8353 38.43031,-19.8302 -6.09877,15.5834 -23.81105,20.0139 -34.90643,22.6643 2.0049,9.2172 18.24422,5.6997 30.87559,21.9328 -13.68391,-9.5766 -28.37929,-9.5395 -36.77641,-19.2733 -4.66148,0.7989 -12.02643,2.9344 -14.37815,5.0116 11.18277,24.2108 12.78549,14.9639 23.25436,29.4045 0.72858,-3.5803 1.14461,-7.6233 -1.40458,-10.3224 44.06034,26.6854 52.55142,7.6588 66.41362,10.6548 -10.01326,-14.1856 -14.09845,-30.853 -27.48464,-38.2558 28.20971,-7.6029 27.36478,-35.3391 42.1038,-50.1073 -16.50972,8.7449 -36.52728,-4.7265 -65.09218,16.7551 -4.16619,-12.8666 7.96047,-16.5607 -19.83018,-40.7658 0.94331,-7.3734 1.67062,-14.5859 2.20244,-21.6419 24.00039,41.3799 50.91119,30.8378 90.48245,32.5211 -11.77423,-22.7441 -14.91924,-34.9972 -32.57934,-48.9937 26.81197,9.2244 57.35067,-26.0855 73.94347,-81.199 -24.74904,8.1075 -67.06995,7.0866 -94.31385,35.5547 -1.36905,-12.0849 3.96564,-26.1203 -27.36832,-62.3163 -2.20388,12.2131 -9.27096,19.5619 -15.58321,29.0638 -7.44192,-36.4461 -20.50086,-66.5496 -35.20562,-91.0061 6.41304,0.8342 10.74984,0.4298 18.29261,6.7569 0.15492,-1.8656 5.95159,-14.349 9.4746,-19.2151 -15.91449,-7.1882 -17.13758,-17.6243 -24.09376,-34.0754 11.61928,10.3686 14.72025,26.933 28.54019,28.4903 9.04115,-14.4139 22.55963,-36.5804 21.36771,-56.39877 9.19455,21.49727 -5.41347,42.74427 -14.69395,55.92507 11.48931,7.4007 25.43824,-11.5303 55.4846,-7.1142 -24.44492,3.2963 -40.25412,17.244 -59.15809,15.3754 -4.21741,5.2202 -9.99682,14.3524 -10.43038,18.6749 36.55792,13.8366 28.9272,2.9991 54.82804,7.6545 -2.8377,-4.3021 -6.47983,-8.7832 -11.95959,-9.0923 74.5096,-14.8007 64.41804,-42.0309 82.39577,-52.1352 -25.15154,-4.8296 -46.42611,-17.7823 -68.35012,-12.5746 22.72075,-34.38415 -6.26507,-61.5675 -5.31907,-90.42431 -8.95054,24.45673 -44.16524,29.82529 -53.224,78.54777 -18.92349,-9.76375 -6.48621,-26.75179 -77.07666,-21.55888 7.056,11.54055 21.6351,43.58202 33.0032,60.96992 -3.8774,-4.8925 -7.7445,-9.447 -11.5358,-13.6717 -16.7339,-18.647 -37.9675,-31.25103 -61.7678,-38.83756 56.6642,-14.01203 50.4085,-43.77644 60.8536,-84.89741 -24.6732,6.86724 -37.3123,7.43835 -54.6286,21.85804 14.5194,-24.35485 -13.7881,-61.48428 -64.3359,-89.01137 z m 23.4788,45.63599 c 17.8002,15.15998 25.1347,62.7388 22.6891,78.67245 13.5824,1.51488 19.457,-8.77752 46.5254,-31.0501 -18.9648,31.02556 -28.3741,33.35375 -46.1347,40.09252 -0.9402,4.23697 -1.7315,10.22178 -1.762,15.02639 -2.1482,-0.50344 -4.3105,-0.96545 -6.4909,-1.39626 -0.056,-4.40041 0.1033,-9.32737 0.5984,-12.29205 -17.4507,0.64465 -12.1975,0.54999 -25.7477,-11.08694 15.0194,4.11485 14.1746,8.86083 27.2437,4.10566 1.6825,-16.93142 -7.0348,-64.85409 -16.9213,-82.07167 z m -573.0057,43.71615 c 4.1687,13.72642 18.269,25.62345 27.5927,33.3024 8.3889,-4.27093 6.2355,-16.23345 11.0371,-25.97205 -0.3286,12.78181 1.4878,20.15202 -6.8317,28.73132 2.7516,1.98224 7.6245,6.91088 9.7655,9.44967 -1.4069,0.63308 -2.7984,1.27454 -4.1639,1.91154 -2.3784,-2.74201 -6.6771,-6.13577 -9.7821,-8.13652 -11.54,5.66458 -25.0384,-0.12374 -41.3807,3.32442 17.9825,-9.9847 31.5359,-0.38396 36.9925,-8.07835 -9.1693,-6.78647 -23.7252,-17.80549 -23.2294,-34.53243 z m 380.2723,31.30774 c 5.8983,31.02669 1.2002,38.01637 -6.2998,52.70872 2.5919,4.546 7.3389,11.1062 10.713,13.6467 -1.7198,0.9834 -3.4191,1.9847 -5.103,2.992 -3.1099,-3.0587 -7.7674,-8.2355 -9.7489,-11.3196 -10.8568,10.5891 -7.5332,7.4607 -23.0465,7.8705 12.0694,-6.1081 14.3006,-2.5508 19.9382,-13.2312 -8.7978,-11.8789 -42.3806,-37.64168 -58.7924,-42.9598 20.3051,-0.62018 52.7967,25.72646 60.5211,37.4081 9.6271,-6.94383 7.3921,-16.99801 11.8183,-47.11542 z m -488.9477,5.38557 c 17.8003,15.15997 25.1347997,62.73875 22.6891997,78.67245 13.5823,1.5149 19.4570003,-8.7775 46.5253003,-31.0501 -18.9647,31.0256 -28.374,33.3537 -46.1346003,40.0925 -1.4539,6.5516 -2.5659,17.3038 -1.0306,21.3677 0.4598,-0.083 0.9016,-0.1732 1.3547,-0.2576 -13.5085997,15.2112 -26.5634997,31.5966 -38.6214997,48.8274 4.9639,-21.8068 -7.3763,-36.0867 -19.4811,-57.0553 10.4799,5.8375 25.5337,9.9814 50.1988,9.8818 -0.6915,-1.7396 -1.0644,-15.5003 -0.075,-21.4259 -17.4507,0.6446 -12.1893,0.5417 -25.7394,-11.0953 15.0194,4.1149 14.1662,8.8692 27.2354,4.114 1.6825,-16.9314 -7.0349,-64.85407 -16.9214,-82.07165 z m 160.2871,18.29263 c 2.1204,2.22555 4.4735,4.92893 5.6348,6.71533 8.4134,-8.10927 5.8303,-5.71164 17.8522,-6.02551 -9.353,4.67768 -11.0731,1.95202 -15.4419,10.13117 6.8177,9.09704 32.843,28.83083 45.5612,32.90343 -15.7353,0.475 -40.9217,-19.7023 -46.9076,-28.64817 -7.4604,5.31762 -5.7288,13.01397 -9.1588,36.07827 -4.5708,-23.7606 -0.9334,-29.1152 4.8786,-40.36677 -1.5985,-2.77062 -4.2472,-6.50541 -6.5824,-8.90114 1.3821,-0.63561 2.7697,-1.26499 4.1639,-1.88661 z m -40.3087,3.54051 c -2.4059,1.0493 -3.7041,3.29916 -4.5212,5.7928 -8.0752,5.20965 -16.4527,11.16598 -24.9913,17.80231 1.3335,-6.96674 2.683,-14.38335 4.6043,-22.22379 6.6405,0.41086 14.7682,0.0772 24.9082,-1.37132 z m 29.7952,1.33808 c -17.9849,25.35223 -12.7511,38.33403 -3.2413,54.08003 -15.7394,-10.8346 -33.3778,-14.5749 -65.2751,-0.8727 1.8617,-3.4851 3.3312,-7.1768 4.5628,-11.0786 5.7067,-5.1691 11.0242,-9.6198 15.8242,-13.2478 14.4684,-10.9356 30.7523,-20.49141 48.1294,-28.88093 z m 498.1729,2.65954 c 4.689,-0.021 9.3487,0.0931 13.9709,0.34075 8.0803,2.21828 18.1051,3.6424 30.8506,3.86464 17.049,3.45446 33.138,9.09419 47.6307,17.1706 19.4035,10.8132 35.7861,26.3252 49.3344,45.0792 -0.307,0.2295 -0.6108,0.4653 -0.9142,0.7064 -29.0272,-36.4602 -50.6593,-22.0807 -71.4086,-37.4246 2.0101,47.8322 15.5241,54.3842 22.8139,64.1197 -30.8295,-1.5998 -55.9914,16.3201 -76.7776,29.4794 2.0144,-16.9995 21.9381,-29.7328 -7.9952,-91.6045 3.5485,4.1871 9.318,4.3999 14.4612,4.0724 -18.1198,-16.7544 -7.5988,-18.1881 -33.4935,-35.48817 3.8561,-0.19102 7.7025,-0.29872 11.5274,-0.31582 z m -20.0961,0.88097 c -2.3304,4.39878 -4.5571,10.76504 -5.7014,15.35052 12.8819,13.961 11.2722,34.9784 23.3707,56.4736 -21.6288,-21.3185 -14.9214,-43.8514 -27.7506,-48.5615 -4.9275,15.3487 -13.0824,39.8047 -35.7791,45.4199 16.5349,-10.9903 26.0748,-35.1375 32.1305,-51.0382 -9.57,-10.09098 -24.6584,-2.5761 -39.9346,-5.6016 17.3206,-4.36098 26.3871,-9.67467 41.7132,-1.30484 0.7875,-2.56886 2.5156,-6.42408 4.3134,-10.00651 2.5502,-0.28036 5.0933,-0.52319 7.6379,-0.73137 z m -115.8977,5.00325 c 4.0252,5.73451 7.6472,10.45257 10.9291,14.34487 -9.2316,4.0994 -18.1542,8.5559 -26.6702,13.306 7.9561,-10.6412 12.9607,-19.66265 15.7411,-27.65087 z m 16.913,20.93557 c 17.6396,17.712 24.6645,8.8303 38.6547,15.55 -9.5119,10.4114 -14.944,20.3979 -18.1762,29.8616 -5.4602,-4.5706 -12.5729,-9.4845 -21.9163,-14.7688 4.0051,1.0517 7.6844,-1.3796 10.7462,-3.8729 -19.6925,-2.6276 -11.6286,-8.801 -41.1563,-7.1808 -0.7198,3.2715 1.2443,11.3193 3.0252,16.1318 14.0081,3.0393 22.0277,16.9544 38.7794,25.0744 -22.6096,-3.7701 -28.1068,-20.9074 -38.1145,-18.1596 3.5149,11.8322 8.9305,30.8255 -2.7926,44.4475 5.5813,-14.2574 1.1626,-33.67 -1.8866,-46.3507 -10.2863,-2.0817 -16.4515,9.3426 -27.2602,14.2368 8.9137,-10.4431 12.275,-17.8134 25.4069,-19.3731 -1.2077,-3.8788 -2.2685,-12.5247 -2.2689,-15.4585 11.5628,-7.5081 23.9774,-14.2551 36.9592,-20.1377 z m -455.0635,34.1169 c 2.9004,3.8487 7.1469,8.2041 10.4553,11.0537 18.2628,-5.227 27.1945,-8.9915 60.9533,4.5212 -35.0149,-1.6507 -45.882,-6.3899 -55.8586,2.9504 11.4929,11.3038 34.0897,53.8224 28.8975,76.6196 -2.3799,-19.711 -24.0679,-63.3284 -35.5463,-75.8882 -13.3169,4.0093 -9.8007,7.3057 -19.3731,19.5891 3.8946,-17.4314 -0.3724,-14.3604 13.9958,-24.2849 -2.3076,-2.2105 -5.6303,-6.4204 -8.3111,-10.1561 1.7489,-1.4097 3.3407,-2.8814 4.7872,-4.4048 z m 722.3803,0.3656 c 1.0844,1.1088 2.1045,1.9412 3.0335,2.4352 -0.428,0.018 -0.8245,0.038 -1.2134,0.066 -0.604,-0.8429 -1.2147,-1.6757 -1.8201,-2.5017 z m -836.0838,39.2448 c 5.8982,31.0267 1.2002,38.0081 -6.2998,52.7004 2.2483,3.9435 6.112,9.3969 9.3001,12.4334 -0.5288,0.909 -1.0571,1.8221 -1.5791,2.7343 -0.715,0.4098 -1.4588,0.8537 -2.2357,1.3464 -3.1086,-3.0739 -7.6792,-8.1463 -9.6325,-11.1867 -10.8569,10.5891 -7.5249,7.4607 -23.0383,7.8706 12.0694,-6.1081 14.2923,-2.5592 19.9299,-13.2395 -8.7978,-11.8789 -42.3805,-37.6417 -58.7924,-42.9599 20.3052,-0.6201 52.7968,25.7265 60.5211,37.4081 9.6271,-6.9438 7.4005,-16.9896 11.8267,-47.1071 z m 517.1387,2.7095 c -4.3576,32.2129 12.363,45.8123 17.8023,61.4934 -6.2857,1.8762 -13.0453,5.0796 -20.3704,10.5883 -4.5018,-13.9032 10.0325,-17.0979 -27.3433,-47.0322 -2.9441,12.3471 -17.1116,49.6227 -14.6192,57.6704 -4.9138,-4.2149 -6.1603,-2.3331 -9.9816,-3.474 -8.1375,-18.0157 -10.07,-36.7034 -1.8035,-56.6233 2.7624,-6.6564 6.1337,-13.1353 10.0481,-19.4229 34.4241,11.7392 32.0765,-0.749 46.2676,-3.1997 z m -520.5961,73.9268 c -9.3848,17.3138 -17.488,35.1289 -23.8694,53.1824 -0.2665,-16.369 -4.3781,-26.745 -9.4829,-34.948 9.1113,-1.9486 19.7935,-6.8961 33.3523,-18.2344 z m 497.0094,1.2965 c 0.6011,10.8413 -6.0609,20.9993 -0.017,28.216 11.5873,-3.4109 29.2159,-8.8353 38.4304,-19.8301 -6.0988,15.5833 -23.8111,20.0221 -34.9065,22.6725 2.0049,9.2173 18.2442,5.6998 30.8756,21.9329 -13.6839,-9.5766 -28.3793,-9.5395 -36.7764,-19.2733 -2.3523,0.4031 -5.3904,1.1393 -8.1282,2.0445 -0.9935,-1.2262 -1.9627,-2.4606 -2.9172,-3.6901 2.9487,-1.2333 6.3405,-2.4894 8.4606,-2.9671 -4.2919,-11.1533 0.2717,-17.217 4.9784,-29.1053 z m 489.49618,25.4235 c -11.19367,20.5274 -56.26754,37.4532 -72.36437,38.3223 1.29857,13.6047 12.58275,17.2444 39.92631,39.1783 -34.25163,-12.2095 -38.46154,-20.9466 -48.69448,-36.9509 -2.82196,-0.034 -6.35901,0.1498 -9.7821,0.5402 0.0286,-2.3098 0.0393,-4.6003 0.0249,-6.8733 2.61191,-0.4647 5.08084,-0.8075 6.88156,-0.8809 -4.20452,-16.9489 -3.03057,-11.8222 5.58503,-27.4681 -0.95206,15.5438 -5.77652,15.6912 1.55415,27.5096 16.91716,-1.8203 62.04079,-20.1744 76.86896,-33.3772 z m -949.72918,12.7575 c 8.4234,34.9811 32.6499997,39.3529 41.9541997,55.1688 -19.2942997,4.2165 -39.7437997,10.8542 -55.2850997,27.094 -1.3691,-12.0849 3.9656,-26.1203 -27.3684,-62.3163 -2.5621,14.1986 -11.6945,21.8239 -18.5752,33.9008 3.1441,-11.2176 7.1272,-22.5738 11.7851,-33.9423 42.5467,-0.6451 34.5598,-12.1234 47.4894,-19.905 z m -169.4458,7.6628 c 15.2811,12.6758 61.0205,29.4406 77.9909,30.6678 6.9127,-12.0678 2.0855,-12.042 0.5901,-27.5429 9.1578,15.3349 10.1496,10.1664 6.5408,27.252 3.839,0.022 10.7293,1.1369 15.6248,2.1941 -0.5254,2.0836 -1.022,4.1723 -1.496,6.2582 -4.9101,-1.0342 -11.8905,-1.3677 -16.7468,-1.1386 -9.6666,16.3526 -13.5696,25.2292 -47.373,38.6298 26.5593,-22.8773 37.7084,-26.9078 38.5301,-40.5496 -16.1174,-0.3053 -61.7558,-15.6477 -73.6609,-35.7708 z m 647.4894,18.9243 c 18.9444,9.1227 29.7105,8.1593 37.7737,6.1501 -1.7441,8.4562 -2.1258,18.9988 -0.1496,32.8703 -11.4208,-11.6636 -23.4753,-23.1364 -34.9978,-34.5906 0.3611,-0.027 0.7369,-0.049 1.1386,-0.058 -1.3093,-1.5876 -2.5628,-3.037 -3.7649,-4.3716 z m -14.1953,6.2997 c 4.6943,1.1595 7.102,0.9328 9.0756,0.3159 8.3046,8.5718 16.8749,17.0708 25.274,25.5814 -7.0346,-3.0622 -13.6879,-5.8705 -19.29,-12.1923 -2.0606,9.5638 -2.9952,17.2462 -3.1665,23.5369 -3.494,-17.0268 -7.5049,-32.9635 -11.8931,-37.2419 z m 159.032,7.4384 c -11.1936,20.5274 -56.2675,37.4532 -72.3643,38.3223 1.2985,13.6047 12.5744,17.2361 39.918,39.17 -34.2517,-12.2095 -38.4533,-20.9383 -48.6862,-36.9426 -3.1824,-0.039 -7.2745,0.1963 -11.087,0.6981 -1.7005,-1.9035 -3.4302,-3.8025 -5.1861,-5.6931 4.5714,-1.0639 10.0917,-2.0845 13.3892,-2.219 -4.2045,-16.9489 -3.0306,-11.8222 5.585,-27.4681 -0.952,15.5438 -5.7765,15.6829 1.5542,27.5013 16.9171,-1.8203 62.049,-20.1661 76.8772,-33.3689 z m -696.9484,27.2021 c -2.1613,15.4855 -2.7712,30.9494 -1.5459,46.2261 0.4805,5.9907 1.2855,11.9313 2.377,17.8189 -2.1441,4.3278 -4.1407,10.106 -5.2027,14.3615 12.8818,13.961 11.2804,34.9867 23.3789,56.4819 -21.6287,-21.3185 -14.9296,-43.8513 -27.7589,-48.5615 -4.9274,15.3487 -13.0823,39.8048 -35.7791,45.42 16.5349,-10.9903 26.0832,-35.1375 32.1389,-51.0382 -9.57,-10.0911 -24.6585,-2.5844 -39.9346,-5.61 17.3206,-4.361 26.3788,-9.6747 41.7048,-1.3048 1.7608,-5.7438 8.2453,-17.8927 9.6409,-19.1404 -16.3871,-3.77 -11.4765,-11.888 -32.7955,-21.4924 12.6518,-4.2346 23.6824,-13.3149 33.7762,-33.1611 z m 115.1994997,11.5025 c -11.1936,20.5274 -56.2674997,37.4532 -72.3643997,38.3223 1.2986,13.6047 12.5745,17.2444 39.9181,39.1783 -34.2517,-12.2096 -38.4533,-20.9466 -48.6862,-36.9509 -6.7105,-0.082 -17.4633,1.0393 -21.1267,3.3742 2.0264,5.0098 4.0616,9.5494 6.1169,13.68 -2.6746,-2.1383 -6.0635,-4.582 -10.3888,-7.43 -1.789,-10.3321 -2.2436,-21.1345 -1.5458,-32.2636 0.5301,5.9145 1.5311,12.4987 3.1083,19.8884 1.5611,-1.0331 14.9495,-4.2182 20.9521,-4.463 -4.2044,-16.9489 -3.0305,-11.8222 5.5851,-27.4681 -0.9521,15.5438 -5.7765,15.6829 1.5541,27.5013 16.9172,-1.8203 62.0491,-20.1661 76.8772997,-33.3689 z m 439.2309003,14.9516 c 1.626,3.2466 3.3468,5.8275 4.5628,8.5105 -1.0277,-0.2905 -2.0582,-0.5584 -3.0834,-0.7978 -0.4765,-2.4059 -0.9682,-5.0213 -1.4794,-7.7127 z m 24.0938,0.6732 c 13.3919,7.7457 12.0681,3.5811 16.1899,17.4698 2.6967,-1.2947 7.6599,-2.8812 11.7269,-3.981 1.0167,1.6556 2.0383,3.2235 3.0668,4.7041 -4.2948,1.0713 -10.075,3.5679 -13.8711,5.6349 -0.9123,15.6581 -0.3597,23.6404 -21.3428,46.3258 11.4681,-26.8687 18.5481,-34.0676 13.6467,-44.3727 -12.7253,5.9127 -54.6376,12.0521 -72.1233,1.845 17.0987,3.4668 59.6695,-1.6684 73.4365,-7.2306 0.5004,-11.471 -3.2611,-9.6107 -10.7296,-20.3953 z m 35.5464,24.1769 c 4.5098,5.339 9.1569,9.2348 13.9958,12.0676 4.1664,9.5002 6.8665,19.279 7.6129,29.4378 -32.6978,19.2013 -19.8932,20.2342 -39.652,37.275 5.1288,0.5052 10.903,0.4965 14.5942,-3.5654 -14.139,26.8177 -18.2486,44.4141 -18.3093,57.1718 -2.0412,2.0957 -4.1283,4.1607 -6.2582,6.2 15.4541,-30.8786 0.2032,-46.4371 -14.4695,-72.0153 26.8551,-13.7731 47.0002,-21.2193 42.4861,-66.5715 z m 285.43484,15.392 c 2.39558,5.4579 4.9506,7.523 6.86493,10.1478 -0.55834,1.7545 -1.12458,3.495 -1.71207,5.2111 -2.17474,6.3525 -4.93087,12.631 -8.16978,18.8245 4.41398,-13.8976 -0.58399,-23.0285 3.01692,-34.1834 z m -259.42954,1.629 c 8.9868,2.3896 18.7062,2.5072 29.4377,2.3437 -13.9958,7.2663 -13.0524,13.8093 -24.8085,16.9961 -0.773,-6.5792 -2.3578,-13.0208 -4.6292,-19.3398 z m -611.1451,25.5897 c 2.9017,3.4241 7.2868,4.1867 11.6022,4.1722 15.7147,12.5792 33.3701,11.5192 55.0857,11.1617 -4.3484,14.9868 -15.7735,46.3018 -13.5138,53.598 -5.5594,-4.7686 -6.4334,-1.73 -11.6438,-4.0973 1.8383,9.6266 4.191,14.4483 6.4161,17.6443 -12.3544,-13.425 -23.4595,-27.2606 -33.0946,-41.1231 -2.0711,-10.7527 -6.529,-24.1526 -14.8518,-41.3558 z m 616.2647,0.2161 c 2.1788,4.3905 4.7106,10.1814 5.6432,13.6468 15.6063,-7.8348 24.4872,-2.2064 41.6467,2.7509 -15.3717,2.4955 -30.1959,-5.532 -40.1092,4.2221 5.5023,16.1005 14.2154,40.563 30.3603,52.1186 -22.489,-6.3967 -29.798,-31.1234 -34.1917,-46.6334 -12.9844,4.2637 -7.068,27.0147 -29.4211,47.5725 0.9448,-1.5506 1.8106,-3.0982 2.618,-4.6459 8.853,-14.0712 15.7134,-28.7297 20.1626,-43.7826 0.614,-2.0773 1.131,-4.1433 1.5708,-6.1917 0.3128,-0.3426 0.6343,-0.6805 0.9641,-1.014 -0.1195,-0.5604 -0.2594,-1.1547 -0.4073,-1.7619 0.9853,-5.525 1.3448,-10.9525 1.1636,-16.2814 z m -78.4813,50.0991 c 5.8982,31.0267 1.2002,38.0164 -6.2998,52.7087 1.6479,2.8904 4.1663,6.5892 6.6488,9.5577 -1.4778,1.1833 -2.9671,2.3548 -4.4713,3.5156 -2.4631,-2.6796 -4.9973,-5.6881 -6.3247,-7.7542 -10.8569,10.589 -7.5249,7.4607 -23.0383,7.8705 12.0694,-6.1081 14.2923,-2.5508 19.93,-13.2312 -8.7979,-11.8789 -42.3806,-37.65 -58.7925,-42.9681 20.3052,-0.6202 52.7968,25.7347 60.5211,37.4163 9.6271,-6.9437 7.4005,-16.9979 11.8267,-47.1153 z m -463.6655003,11.1202 c 0.6011,10.8413 -6.0690997,21.0075 -0.025,28.2243 11.5872,-3.4109 29.2159003,-8.8353 38.4303003,-19.8302 -6.0988,15.5834 -23.8111003,20.0222 -34.9064003,22.6726 2.0049,9.2173 18.2442003,5.6914 30.8756003,21.9246 -13.6839,-9.5767 -28.3793003,-9.5396 -36.7765,-19.2734 -2.657,0.4554 -6.1904,1.344 -9.1754,2.4102 -1.1451,-1.1264 -2.2882,-2.2564 -3.4158,-3.3909 3.2233,-1.4172 7.5095,-3.0674 10.0148,-3.6319 -4.2919,-11.1534 0.2717,-17.2171 4.9782997,-29.1053 z m -58.2853997,2.3603 c 7.6574,9.9744 16.0785,19.6068 25.1326,28.8394 -11.3955,-7.2172 -21.2472,-9.9506 -30.6096,-9.8985 1.9211,-5.3003 4.4109,-11.0857 5.477,-18.9409 z m 206.5214,13.2561 c 5.7529,22.6622 -15.7837,65.7256 -26.9943,77.3095 10.204,9.0914 20.9533,4.0846 55.9168,1.5707 -33.4153,14.3413 -42.4424,10.8004 -60.8286,6.0256 -4.5516,4.1202 -10.8933,11.2764 -12.7824,15.6829 -2.0027,-0.9076 -3.9982,-1.8305 -5.984,-2.7759 1.9282,-3.5873 8.1049,-12.5694 11.7518,-16.2398 -14.6086,-9.5671 -10.2625,-6.6057 -14.5859,-23.9358 9.8726,12.0436 6.4351,15.4274 19.8468,19.1071 11.1652,-12.8391 31.7668,-56.9806 33.6598,-76.7443 z m -99.6911,13.0982 c 1.7263,2.8358 2.9586,5.6569 3.8813,8.4856 -2.3971,-2.7739 -5.1287,-5.1653 -8.4274,-6.9896 1.6082,-0.4334 3.1184,-0.9377 4.5461,-1.496 z m 442.6052,14.5194 c 0.4482,1.7264 0.9447,3.3548 1.4462,4.9119 -2.9994,0.6403 -6.2306,1.8105 -9.7821,3.6319 2.8607,-2.8077 5.6361,-5.6561 8.3359,-8.5438 z m -564.8691,4.3301 c 25.9263,-0.1259 33.2303,5.9239 46.9658,15.284 5.4149,-2.236 13.3073,-6.5103 16.8548,-9.9483 1.6655,1.4267 3.3508,2.8362 5.0448,4.2387 -3.1274,2.7802 -11.7999,9.022 -16.4144,11.2199 10.5251,13.9343 7.4277,9.6787 5.6516,27.4514 -5.2311,-14.668 -0.8496,-16.6956 -12.2339,-24.6839 -14.8418,8.3202 -49.13,42.9285 -57.579,60.8952 2.2292,-23.2745 37.0258,-56.5479 51.487,-63.671 -6.539,-12.0007 -18.3399,-10.9175 -52.102,-20.3455 4.5368,-0.2785 8.6215,-0.4225 12.3253,-0.4405 z m 399.9446,12.3669 c 3.0661,12.1554 19.1155,37.4628 26.6868,44.2397 7.1586,-3.8142 4.8851,-5.5455 9.2086,-14.1953 -0.6714,11.333 1.4662,8.9885 -5.7679,16.6221 1.1097,0.8649 2.6259,2.3756 4.0891,3.9478 -1.3846,0.5728 -2.7661,1.1376 -4.1472,1.6955 -1.2248,-1.0515 -2.4662,-2.0214 -3.5405,-2.7676 -9.8412,5.0603 -14.5551,8.293 -34.7735,3.0834 19.8891,-2.3669 26.4325,-0.4492 31.2413,-7.2888 -7.4696,-5.9862 -23.9305,-30.5058 -22.9967,-45.3368 z m -326.8489003,0.6732 c 0.801,0.6449 1.6034,1.2804 2.4102,1.9198 1.3649,1.3705 2.8954,3.138 4.6875,5.61 0.1146,-0.5636 0.2185,-1.1325 0.3074,-1.7121 15.8850003,12.1954 32.7985003,23.343 50.2819003,33.2858 -2.4753,-0.4426 -5.4973,-1.2706 -10.0397,-3.3992 1.0955,3.4855 2.6878,7.2331 6.225,8.3609 -16.9995,-0.6682 -28.1823,1.151 -36.0368003,4.0308 0.01,-12.0923 -3.7883,-26.964 -17.8355,-48.096 z m 470.9044003,2.7675 c 1.9606,2.344 5.2065,5.1077 7.6046,6.7736 6.4671,-3.3254 10.7164,-5.8566 18.6084,-5.7264 0,1.1644 -0.1056,2.3524 -0.3158,3.5821 1.3669,-1.1509 2.757,-2.2542 4.1556,-3.3327 3.3854,0.3621 7.3941,1.123 12.3252,2.3936 -19.8891,2.3668 -26.4324,0.4491 -31.2412,7.2887 7.4695,5.9862 23.9222,30.5058 22.9884,45.3369 -3.0662,-12.1555 -19.1073,-37.4546 -26.6785,-44.2315 -7.1587,3.8143 -4.8852,5.5455 -9.2087,14.1953 0.6715,-11.3329 -1.4662,-8.9968 5.7679,-16.6304 -1.8843,-1.4685 -4.9544,-4.7777 -6.9065,-7.1309 0.9749,-0.832 1.9396,-1.6775 2.9006,-2.5183 z m -446.071,4.2304 c 17.4017,6.9859 26.9943,4.6232 34.5574,2.46 3.6417,11.5542 11.5793,24.4617 31.7399,39.9014 -23.5702,-11.8621 -45.8437,-26.303 -66.2973,-42.3614 z m 432.8896,6.6987 c -10.7256,16.1004 -8.6902,26.3384 -8.4357,36.1863 -6.0185,-2.4126 -14.1254,-4.3253 -25.4152,-5.2443 3.1019,-0.6372 4.8513,-3.8066 6.1502,-6.7984 -5.3288,1.8711 -8.2052,2.0174 -10.7129,2.0528 13.538,-8.0132 26.4172,-16.7814 38.4136,-26.1964 z m -57.072,36.5437 c 1.5411,2.7117 4.0564,5.9693 6.0006,8.07 10.6412,-2.7139 20.6972,4.9827 34.8815,5.1446 -16.806,5.2427 -26.1696,-5.8003 -32.1721,-0.1247 6.2705,7.7278 16.1807,20.2141 12.5331,34.7651 -0.7913,-12.8316 -10.1473,-26.0012 -16.3728,-34.5407 -7.7651,2.1069 -8.3058,13.0015 -14.162,20.5948 2.7456,-11.129 2.6699,-17.9346 11.2116,-23.8278 -1.5183,-1.8226 -3.791,-5.5663 -5.2942,-8.3443 1.1309,-0.5728 2.2504,-1.1538 3.3743,-1.737 z m -319.1943,1.4627 c 1.3369,0.6595 2.6734,1.3164 4.0142,1.9614 -1.7676,2.6555 -6.2902,8.3245 -8.9011,10.6465 9.1544,7.682 8.0961,15.2026 9.7322,27.8836 -5.7738,-9.1956 -4.8562,-21.3195 -13.6384,-24.7088 -8.4882,8.5936 -21.2947,21.8725 -24.0356,35.9536 -2.2065,-16.5881 11.1466,-29.0365 19.5725,-36.7265 -6.216,-7.095 -18.7218,3.8434 -37.6324,-4.2469 16.6095,1.7561 29.4459,-5.392 41.5054,-0.9392 3.1266,-2.5027 7.482,-6.7757 9.3832,-9.8237 z"
       id="path2985"
       style="fill:#005637;fill-opacity:0.15282395;stroke:none" />
  </g>
</svg>
