<?xml version="1.0" encoding="UTF-8" standalone="no"?>
<svg
   xmlns:svg="http://www.w3.org/2000/svg"
   xmlns="http://www.w3.org/2000/svg"
   width="500"
   height="500"
   version="1.1">
  <path
     id="border"
     d="m 431.14694,334.03382 -132.65853,63.3635 -39.42902,17.7088 -36.77531,17.13982 -62.18096,25.50111 -32.75892,12.48793 -9.75345,-37.54781 -4.06189,0.40038 -0.56053,-7.69962 L 52.105183,424.72361 66.4709,298.16505 66.36951,171.08421 49.82628,3.1734858 65.667896,0.56578127 375.66125,4.6060684 z" />
  <path
     id="quarters_23-M1"
     class="quarter"
     d="m 163.45566,400.13123 43.44364,-21.82286 7.47635,42.63538 -47.28285,22.42905 z" />
  <path
     id="quarters_14-U1"
     class="quarter"
     d="m 158.60614,401.74772 4.04127,43.44367 -13.13412,5.85983 -15.55889,0 -2.82889,-31.31983 3.03095,-5.05158 z" />
  <path
     id="quarters_24-B1"
     class="quarter"
     d="m 215.7901,373.05474 34.95697,-16.97333 7.67841,43.24157 -34.95698,16.97333 z" />
  <path
     id="quarters_37-F2"
     class="quarter"
     d="m 311.3661,330.41932 -6.66809,-0.60616 -48.69729,24.24761 7.67841,44.45396 51.52618,-24.8538 3.23301,-4.84953 z" />
  <path
     id="quarters_39-E2"
     class="quarter"
     d="m 317.02388,322.53885 5.45571,-0.20205 29.90539,-15.55888 8.68873,46.27251 -35.15904,16.16508 z" />
  <path
     id="quarters_50-D2"
     class="quarter"
     d="m 364.71085,300.51394 50.11174,-22.42903 -0.20205,-3.83921 4.44538,-2.02064 8.68872,49.90969 -55.56744,24.65174 z" />
  <path
     id="quarters_49-I2"
     class="quarter"
     d="m 410.57926,223.52777 7.88047,46.07047 -48.29316,21.21665 0.40412,1.81858 -7.07222,3.43509 -7.88047,-49.90968 48.29318,-17.57952 -1.01034,-2.2227 z" />
  <path
     id="quarters_48-J2"
     class="quarter"
     d="m 398.2534,148.7643 12.52791,74.76347 -55.7695,20.40841 -13.74032,-81.83569 49.90968,-8.2846 -0.80826,-3.83921 z" />
  <path
     id="quarters_47-O2"
     class="quarter"
     d="m 388.7564,94.813375 -56.77982,11.921715 8.68872,51.72825 57.79015,-9.69904 z" />
  <path
     d="m 312.1875,5.90625 4.625,28.28125 5.875,33.5625 1.8125,14.53125 3.03125,-0.1875 3.4375,21.625 51.125,-11.9375 1,4.03125 6.0625,-1.1875 -8.875,-52.75 -52.34375,22.84375 -5.25,-31.34375 -0.0312,0 -5.4375,-27.46875 z"
     class="quarter"
     id="quarters_46-U2" />
  <path
     id="quarters_45-I1"
     class="quarter"
     d="m 306.11246,5.5013072 -43.64571,-1.0103021 5.65778,39.8064889 43.03951,-8.688718 z" />
  <path
     id="quarters_44-W2"
     class="quarter"
     d="m 268.93278,49.349075 37.98793,-8.486665 5.85984,3.435084 6.46603,38.99824 -42.43332,19.196026 z" />
  <path
     id="quarters_31-H"
     class="quarter"
     d="M 257.41516,4.8951118 194.57343,3.6827564 204.67661,57.431633 264.28532,45.307831 z" />
  <path
     id="quarters_32-V2"
     class="quarter"
     d="m 205.2828,62.483214 59.81078,-12.527944 8.2846,54.55713 -56.17364,26.87443 z" />
  <path
     id="quarters_33-T2"
     class="quarter"
     d="m 218.41692,136.23636 54.75919,-26.47029 8.48667,46.8787 -54.96126,29.2992 z" />
  <path
     id="quarters_43-S2"
     class="quarter"
     d="m 318.0342,88.95351 7.88047,48.89935 -37.17967,16.97334 -7.88047,-49.30347 z" />
  <path
     id="quarters_42-N2"
     class="quarter"
     d="m 290.55357,160.07985 36.57348,-15.76093 7.47635,44.85807 -2.62682,3.43508 -33.34047,16.77126 z" />
  <path
     id="quarters_41-K2"
     class="quarter"
     d="m 336.01785,197.66365 8.2846,48.29316 -36.37142,16.97333 -8.28461,-48.29316 z" />
  <path
     id="quarters_40-H2"
     class="quarter"
     d="m 309.14341,267.98173 35.76523,-16.77126 8.08254,49.30347 -30.51159,14.3465 -6.66809,1.21239 z" />
  <path
     id="quarters_30-P1"
     class="quarter"
     d="M 191.13835,3.2786144 147.29059,2.8745077 146.48233,2.672419 159.4144,67.130653 201.24153,58.239882 z" />
  <path
     id="quarters_7-R1"
     class="quarter"
     d="M 143.24932,3.076561 78.589016,1.6621169 88.490125,83.699876 156.18138,68.140991 z" />
  <path
     id="quarters_6-Z"
     class="quarter"
     d="M 73.133302,1.4600636 65.252828,1.6621169 50.70426,3.6827564 60.201242,91.176203 83.842665,85.720515 z" />
  <path
     id="quarters_5"
     class="quarter"
     d="m 61.211559,96.025731 22.429042,-5.051581 10.507301,76.78411 -26.470313,1.41445 z" />
  <path
     id="quarters_8-T1"
     class="quarter"
     d="m 100.41187,166.74794 14.14444,-0.20206 7.07222,11.31556 50.91999,-23.2373 -15.96301,-80.825373 -60.61904,14.750637 -5.657776,6.263971 z" />
  <path
     id="quarters_29-G1"
     class="quarter"
     d="m 200.63533,63.493516 -40.00855,9.294914 12.72999,69.30776 5.05159,9.69906 34.95697,-17.98363 z" />
  <path
     id="quarters_28-F1"
     class="quarter"
     d="m 214.37565,139.06525 8.68873,48.6973 -20.00428,9.29491 -10.20421,3.43508 -1.71754,-8.08254 -8.48666,-0.20206 -4.4454,-34.75491 z" />
  <path
     id="quarters_19-S1"
     class="quarter"
     d="m 169.51756,160.28192 4.4454,33.1384 -7.27428,2.92992 0.20206,10.8104 1.71754,6.16293 -22.53007,11.61865 -2.82889,-52.73856 z" />
  <path
     id="quarters_18-Z1"
     class="quarter"
     d="m 138.80392,174.42636 4.24333,52.73856 -16.5692,7.67841 -0.60619,-26.87444 -3.03095,-4.24333 -0.40413,-21.41873 z" />
  <path
     id="quarters_9-EI"
     class="quarter"
     d="m 90.106633,245.14856 25.257927,-7.27428 4.04127,-4.84952 -0.60619,-50.91999 -7.27428,-11.92175 -10.10317,0.20207 -9.901113,2.22269 z" />
  <path
     id="quarters_4"
     class="quarter"
     d="m 67.071399,173.01191 20.004282,-0.60619 -0.404128,73.95522 -18.690869,6.26397 z" />
  <path
     id="quarters_3-MI"
     class="quarter"
     d="m 67.778621,257.27237 -0.404127,39.80649 19.297059,1.81859 0.202064,-47.28286 z" />
  <path
     id="quarters_10-DI"
     class="quarter"
     d="m 90.510758,251.0084 27.884762,-8.2846 1.41444,51.32412 -29.097139,4.44538 z" />
  <path
     id="quarters_17-Y1"
     class="quarter"
     d="m 124.86154,245.75475 3.83921,-7.07222 14.75063,-6.46603 4.4454,48.89936 -21.21666,10.10317 z" />
  <path
     id="quarters_20-P1"
     class="quarter"
     d="m 147.89678,230.39793 22.22698,-9.90111 4.84952,12.93206 1.01032,9.90111 8.48666,6.26397 1.61651,12.32587 -33.54254,16.77126 z" />
  <path
     id="quarters_27-E1"
     class="quarter"
     d="m 223.67057,193.01619 8.48666,47.68698 -36.57348,17.17539 -2.2227,-10.91143 4.64746,-18.38777 -4.04127,-24.24761 z" />
  <path
     id="quarters_34-M2"
     class="quarter"
     d="m 227.9139,190.79349 54.75919,-26.47031 7.47635,47.88904 -54.35506,26.87444 z" />
  <path
     id="quarters_35-L2"
     class="quarter"
     d="m 236.60263,243.53205 54.153,-25.45999 9.09286,48.89936 -54.7592,24.44966 z" />
  <path
     id="quarters_26-D1"
     class="quarter"
     d="m 231.95517,246.15888 -35.76523,17.78158 8.08254,47.08079 35.96729,-16.77128 z" />
  <path
     id="quarters_21-O1"
     class="quarter"
     d="m 186.89502,267.37554 -33.94666,17.17539 4.24334,47.88903 37.98792,-17.37743 z" />
  <path
     id="quarters_16-W1"
     class="quarter"
     d="m 147.49265,286.57157 5.05158,49.50553 -21.41872,10.30525 -3.43508,-2.62683 -1.01031,-46.67666 z" />
  <path
     id="quarters_15-V1"
     class="quarter"
     d="m 130.31726,352.24218 22.42904,-11.11346 5.05159,53.34473 -25.05587,13.53825 z" />
  <path
     id="quarters_22-N1"
     class="quarter"
     d="m 195.98788,319.91205 -38.39206,18.58983 4.4454,53.95093 43.84777,-20.20632 z" />
  <path
     class="quarter"
     d="m 241.04803,299.90775 -35.56317,17.37747 9.29492,50.71793 35.15904,-16.56922 z" />
  <path
     id="quarters_36-G2"
     class="quarter"
     d="m 246.09961,296.67475 54.35507,-26.06619 10.5073,56.57777 -8.48667,-1.41445 -47.08078,22.83316 z" />
  <path
     id="quarters_2-LI"
     class="quarter"
     d="m 67.475526,300.51394 18.993963,1.81859 0,50.51585 -24.65174,-0.40411 z" />
  <path
     id="quarters_1-KI"
     class="quarter"
     d="m 61.110527,355.67726 25.358962,0.20206 -0.202064,62.63968 3.839208,0.80825 0,4.44539 -36.674517,-0.40411 z" />
  <path
     id="quarters_12-BI-2"
     class="quarter"
     d="m 89.904569,419.5293 33.946661,-0.60616 1.21238,14.7506 -5.25365,0 -0.60619,-3.03094 -3.43508,0 -1.21238,-6.87016 -24.449677,0.20208 z" />
  <path
     id="quarters_13-AZ-L"
     class="quarter"
     d="m 216.21702,428.52821 1.01032,4.08841 -83.87913,34.39762 -1.01032,-4.04128 z" />
  <path
     id="quarters_38-A2-2"
     class="quarter"
     d="m 428.56289,327.59044 1.01034,5.85986 -55.36539,26.87444 -1.81857,-6.66812 z" />
  <path
     id="quarters_38-A2-1"
     class="quarter"
     d="m 361.88196,359.11235 1.34374,6.48961 -31.65325,14.9291 -2.2227,-5.45568 z" />
  <path
     id="quarters_13-AZ"
     class="quarter"
     d="m 272.1658,401.74772 2.80531,5.08193 -49.38094,22.49974 -1.01032,-4.95056 z" />
  <path
     id="quarters_11-CI"
     class="quarter"
     d="m 89.540056,302.58427 29.726434,-3.92 1.95999,55.53292 -6.85031,-0.14123 -24.836114,-0.5121 z" />
  <path
     id="quarters_12-BI-1"
     class="quarter"
     d="m 90.193385,356.48385 29.073105,0.6533 4.5733,4.89999 2.61331,51.61292 -36.586381,1.30666 z" />
</svg>
