<?xml version="1.0" encoding="UTF-8" standalone="no"?>
<svg
   xmlns:svg="http://www.w3.org/2000/svg"
   xmlns="http://www.w3.org/2000/svg"
   width="500"
   height="500"
   version="1.1">
  <g
     transform="matrix(0.36609878,0,0,0.36609878,30.964653,-62.995914)">
    <path
       id="border"
       d="M 1164.7887,1105.1635 628.07798,1358.7301 343.66197,1478.403 236.15843,1522.5604 213.95581,1386.755 38.971658,1385.5775 78.873239,1028.9389 78.58651,669.55861 31.802817,194.7128 76.602371,187.3383 1012.6761,205.1635 z" />
    <path
       id="quarters_23-M1"
       class="quarter"
       d="M 353.14286,1317.2958 476,1255.5815 l 21.14286,120.5714 -133.71429,63.4286 z" />
    <path
       id="quarters_14-U1"
       class="quarter"
       d="m 339.42857,1321.8672 11.42857,122.8572 -37.14285,16.5714 -44,0 -8,-88.5714 8.57142,-14.2857 z" />
    <path
       id="quarters_24-B1"
       class="quarter"
       d="m 501.14286,1240.7244 98.85714,-48 21.71429,122.2857 -98.85715,48 z" />
    <path
       id="quarters_37-F2"
       class="quarter"
       d="m 771.42857,1120.1529 -18.85714,-1.7142 -137.71429,68.5714 21.71429,125.7143 145.71428,-70.2857 9.14286,-13.7143 z" />
    <path
       id="quarters_50-D2"
       class="quarter"
       d="M 922.28571,1035.5815 1064,972.15294 l -0.5714,-10.85715 12.5714,-5.71428 24.5714,141.14289 -157.14283,69.7143 z" />
    <path
       id="quarters_49-I2"
       class="quarter"
       d="m 1052,817.86722 22.2857,130.28572 -136.57141,59.99996 1.14285,5.1429 -20,9.7143 -22.28571,-141.14288 136.57147,-49.71428 -2.8572,-6.28572 z" />
    <path
       id="quarters_48-J2"
       class="quarter"
       d="M 1017.1429,606.43865 1052.5714,817.86722 894.85714,875.58151 856,644.15294 997.14286,620.72437 994.85714,609.86722 z" />
    <path
       id="quarters_47-O2"
       class="quarter"
       d="m 990.28571,453.86722 -160.57142,33.71429 24.57142,146.28571 163.42859,-27.42857 z" />
    <path
       id="quarters_44-W2"
       class="quarter"
       d="m 651.42857,325.29579 107.42857,-24 16.57143,9.71429 18.28572,110.28571 -120,54.28572 z" />
    <path
       id="quarters_31-H"
       class="quarter"
       d="m 618.85714,199.58151 -177.71428,-3.42857 28.57143,152 168.57142,-34.28572 z" />
    <path
       id="quarters_32-V2"
       class="quarter"
       d="M 471.42857,362.43865 640.57143,327.01008 664,481.29579 l -158.85714,76 z" />
    <path
       id="quarters_33-T2"
       class="quarter"
       d="m 508.57143,571.01008 154.85714,-74.85714 24,132.57143 L 532,711.58151 z" />
    <path
       id="quarters_43-S2"
       class="quarter"
       d="m 790.28571,437.29579 22.28572,138.28572 -105.14286,48 -22.28571,-139.42857 z" />
    <path
       id="quarters_42-N2"
       class="quarter"
       d="M 712.57143,638.43865 816,593.86722 l 21.14286,126.85715 -7.42857,9.71428 -94.28572,47.42857 z" />
    <path
       id="quarters_41-K2"
       class="quarter"
       d="m 841.14286,744.72437 23.42857,136.57142 -102.85714,48 -23.42858,-136.57142 z" />
    <path
       id="quarters_40-H2"
       class="quarter"
       d="m 765.14286,943.58151 101.14285,-47.42857 22.85715,139.42856 -86.28572,40.5714 L 784,1079.5815 z" />
    <path
       id="quarters_30-P1"
       class="quarter"
       d="m 431.42857,195.01008 -124,-1.14286 -2.28571,-0.57143 36.57143,182.28572 L 460,350.43865 z" />
    <path
       id="quarters_7-R1"
       class="quarter"
       d="m 296,194.43865 -182.85714,-4 28,232 191.42857,-44 z" />
    <path
       id="quarters_GZ"
       class="quarter"
       d="M 97.714286,189.86722 75.428571,190.43865 34.285714,196.15294 61.142857,443.58151 128,428.15294 z" />
    <path
       id="quarters_Z-5"
       class="quarter"
       d="m 64,457.29579 63.42857,-14.28571 29.71429,217.14286 -74.857146,4 z" />
    <path
       id="quarters_8-T1"
       class="quarter"
       d="m 174.85714,657.29579 40,-0.57142 20,32 144,-65.71429 -45.14285,-228.57143 -171.42858,41.71429 -16,17.71428 z" />
    <path
       id="quarters_29-G1"
       class="quarter"
       d="m 458.28571,365.29579 -113.14285,26.28572 36,196 14.28571,27.42857 98.85714,-50.85714 z" />
    <path
       id="quarters_28-F1"
       class="quarter"
       d="m 497.14286,579.01008 24.57143,137.71429 -56.57143,26.28571 -28.85715,9.71429 -4.85714,-22.85715 -24,-0.57143 -12.57143,-98.28571 z" />
    <path
       id="quarters_Z1"
       class="quarter"
       d="m 283.42857,679.01008 12,149.14286 -46.85714,21.71428 -1.71429,-76 -8.57143,-12 -1.14285,-60.57143 z" />
    <path
       id="quarters_9-E_1"
       class="quarter"
       d="m 145.71429,879.01008 71.42857,-20.57143 11.42857,-13.71428 -1.71429,-144 -20.57143,-33.71429 -28.57142,0.57143 -28,6.28571 z" />
    <path
       id="quarters_Z4"
       class="quarter"
       d="M 80.571429,675.01008 137.14286,673.29579 136,882.43865 83.142857,900.15294 z" />
    <path
       id="quarters_3-M_1"
       class="quarter"
       d="M 82.571429,913.29579 81.428571,1025.8672 136,1031.0101 136.57143,897.29579 z" />
    <path
       id="quarters_10-D_1"
       class="quarter"
       d="m 146.85714,895.58151 78.85715,-23.42857 4,145.14286 -82.28572,12.5714 z" />
    <path
       id="quarters_17-V1"
       class="quarter"
       d="m 244,880.72437 10.85714,-20 41.71429,-18.28572 12.57143,138.28572 -60,28.57143 z" />
    <path
       id="quarters_20-P1"
       class="quarter"
       d="m 309.14286,837.29579 62.85714,-28 13.71429,36.57143 2.85714,28 24,17.71429 4.57143,34.85714 -94.85715,47.42857 z" />
    <path
       id="quarters_27-E1"
       class="quarter"
       d="m 523.42857,731.58151 24,134.85714 L 444,915.01008 l -6.28571,-30.85714 13.14285,-52 -11.42857,-68.57143 z" />
    <path
       id="quarters_34-M2"
       class="quarter"
       d="m 535.42857,725.29579 154.85714,-74.85714 21.14286,135.42857 -153.71428,76 z" />
    <path
       id="quarters_35-L2"
       class="quarter"
       d="m 560,874.43865 153.14286,-72 25.71428,138.28572 L 584,1009.8672 z" />
    <path
       id="quarters_26-D1"
       class="quarter"
       d="m 546.85714,881.86722 -101.14285,50.28572 22.85714,133.14286 101.71428,-47.4286 z" />
    <path
       id="quarters_21-O1"
       class="quarter"
       d="m 419.42857,941.86722 -96,48.57143 12,135.42855 107.42857,-49.1428 z" />
    <path
       id="quarters_16-W1"
       class="quarter"
       d="m 308,996.15294 14.28571,139.99996 -60.57142,29.1429 -9.71429,-7.4286 -2.85714,-132 z" />
    <path
       id="quarters_15-V1"
       class="quarter"
       d="m 259.42857,1181.8672 63.42857,-31.4285 14.28572,150.8571 -70.85715,38.2857 z" />
    <path
       id="quarters_22-N1"
       class="quarter"
       d="m 445.14286,1090.4387 -108.57143,52.5714 12.57143,152.5714 124,-57.1428 z" />
    <path
       id="quarters_25-C1"
       class="quarter"
       d="M 572.57143,1033.8672 472,1083.0101 l 26.28571,143.4286 99.42858,-46.8572 z" />
    <path
       id="quarters_36-G2"
       class="quarter"
       d="m 586.85714,1024.7244 153.71429,-73.71432 29.71428,160.00002 -24,-4 -133.14285,64.5714 z" />
    <path
       id="quarters_2-L_1"
       class="quarter"
       d="m 81.714286,1035.5815 53.714284,5.1429 0,142.8571 -69.714284,-1.1428 z" />
    <path
       id="quarters_1-K_1"
       class="quarter"
       d="m 63.714286,1191.5815 71.714284,0.5714 -0.57143,177.1429 10.85715,2.2857 0,12.5714 L 42,1383.0101 z" />
    <path
       id="quarters_12-B_1_2"
       class="quarter"
       d="m 145.79019,1371.6674 96,-1.7142 3.42857,41.7142 -14.85714,0 -1.71429,-8.5714 -9.71429,0 -3.42857,-19.4286 -69.14285,0.5715 z" />
    <path
       id="quarters_13-A_Z_1"
       class="quarter"
       d="m 502.35019,1397.6015 2.85715,11.5619 L 268,1506.4387 l -2.85714,-11.4286 z" />
    <path
       id="quarters_38-A2_2"
       class="quarter"
       d="m 1102.8571,1112.1529 2.8572,16.5715 -156.57144,76 L 944,1185.8672 z" />
    <path
       id="quarters_38-A2_1"
       class="quarter"
       d="m 914.28571,1201.2958 3.80004,18.3524 -89.51432,42.219 -6.28572,-15.4285 z" />
    <path
       id="quarters_13-A_Z_2"
       class="quarter"
       d="m 660.57143,1321.8672 7.93334,14.3715 -139.64763,63.6285 -2.85714,-14 z" />
    <path
       id="quarters_11-C_1"
       class="quarter"
       d="m 144.11203,1041.4363 84.06535,-11.0856 5.54277,157.0452 -19.37242,-0.3994 -70.2357,-1.4482 z" />
    <path
       id="quarters_12-B_1_1"
       class="quarter"
       d="m 145.95962,1193.8625 82.21776,1.8475 12.93313,13.857 7.39036,145.9596 -103.46505,3.6952 z" />
  </g>
</svg>
